<?xml version="1.0" encoding="UTF-8" standalone="no"?>
<!-- Created with Inkscape (http://www.inkscape.org/) -->

<svg
   width="285.75mm"
   height="31.750002mm"
   viewBox="0 0 285.75 31.750002"
   version="1.1"
   id="svg5"
   inkscape:version="1.2.1 (9c6d41e, 2022-07-14)"
   sodipodi:docname="set02120.svg"
   inkscape:export-filename="set02120.png"
   inkscape:export-xdpi="96"
   inkscape:export-ydpi="96"
   xmlns:inkscape="http://www.inkscape.org/namespaces/inkscape"
   xmlns:sodipodi="http://sodipodi.sourceforge.net/DTD/sodipodi-0.dtd"
   xmlns="http://www.w3.org/2000/svg"
   xmlns:svg="http://www.w3.org/2000/svg">
  <sodipodi:namedview
     id="namedview7"
     pagecolor="#ffffff"
     bordercolor="#666666"
     borderopacity="1.0"
     inkscape:pageshadow="2"
     inkscape:pageopacity="0.0"
     inkscape:pagecheckerboard="0"
     inkscape:document-units="mm"
     showgrid="true"
     inkscape:zoom="0.93677454"
     inkscape:cx="438.20576"
     inkscape:cy="152.65146"
     inkscape:window-width="1340"
     inkscape:window-height="890"
     inkscape:window-x="135"
     inkscape:window-y="38"
     inkscape:window-maximized="0"
     inkscape:current-layer="layer1"
     inkscape:showpageshadow="2"
     inkscape:deskcolor="#d1d1d1">
    <inkscape:grid
       type="xygrid"
       id="grid824"
       originx="-8.0112513e-07"
       originy="3.5375777e-09" />
  </sodipodi:namedview>
  <defs
     id="defs2" />
  <g
     inkscape:label="Layer 1"
     inkscape:groupmode="layer"
     id="layer1">
    <g
       inkscape:label="Layer 1"
       id="layer1-1"
       transform="matrix(0.14569164,0,0,0.14569164,0.09224391,-5.4210854)">
      <rect
         style="font-variation-settings:normal;opacity:1;vector-effect:none;fill:none;fill-opacity:1;fill-rule:evenodd;stroke-width:0.491555;stroke-linecap:butt;stroke-linejoin:miter;stroke-miterlimit:4;stroke-dasharray:none;stroke-dashoffset:0;stroke-opacity:1;-inkscape-stroke:none;stop-color:#000000;stop-opacity:1"
         id="rect2762"
         width="52.156235"
         height="22.138258"
         x="55.177456"
         y="243.7709"
         ry="8.5252748e-07" />
      <path
         style="fill:#000000;fill-opacity:0.75;stroke:#4c8adc;stroke-width:1;stroke-linejoin:round;stroke-dasharray:none;stroke-opacity:0.285106"
         d="m 155.90315,90.746508 -13.03708,12.667372 -0.37922,26.0728 -0.37922,26.07267 13.13481,-12.75818 13.13486,-12.75818 0.28148,-25.98191 0.28149,-25.981861 z"
         id="path7599" />
      <path
         style="fill:#000000;fill-opacity:0.75;stroke:#4c8adc;stroke-width:1;stroke-linejoin:round;stroke-dasharray:none;stroke-opacity:0.285106"
         d="m 85.380911,185.49548 24.941709,0.0424 -4.82216,5.13269 c -2.65219,2.82298 -8.185737,8.51503 -12.296769,12.64899 L 85.729089,210.83587 73.084174,198.1445 60.439262,185.45314 Z"
         id="path7601" />
      <path
         style="fill:#000000;fill-opacity:0.75;stroke:#4c8adc;stroke-width:1;stroke-linejoin:round;stroke-dasharray:none;stroke-opacity:0.285106"
         d="m 45.239998,225.1893 -13.037736,-13.04173 13.13355,-13.12952 13.133546,-13.12957 13.03774,13.03776 13.0378,13.03772 -13.13361,13.13354 -13.133555,13.13353 z"
         id="path7603" />
      <path
         style="fill:#000000;fill-opacity:0.75;stroke:#4c8adc;stroke-width:1;stroke-linejoin:round;stroke-dasharray:none;stroke-opacity:0.285106"
         d="m 31.659821,159.74439 c 0.09054,0.0867 5.751608,5.80975 12.580247,12.71792 l 12.415699,12.5603 -12.529357,12.3362 c -11.247477,11.07409 -12.552842,12.24576 -12.758846,11.45216 -0.25575,-0.98525 0.03212,-49.31573 0.292257,-49.06658 z"
         id="path7605" />
      <path
         style="fill:#000000;fill-opacity:0.75;stroke:#4c8adc;stroke-width:1;stroke-linejoin:round;stroke-dasharray:none;stroke-opacity:0.285106"
         d="m 142.52095,75.869207 0.35878,-25.980543 25.76717,0.355837 25.76717,0.355836 -19.34546,18.964939 C 164.4286,79.995999 152.67192,91.527116 148.94265,95.18999 l -6.78049,6.65978 z"
         id="path7607" />
      <path
         style="fill:#000000;fill-opacity:0.75;stroke:#4c8adc;stroke-width:1;stroke-linejoin:round;stroke-dasharray:none;stroke-opacity:0.285106"
         d="m 86.610123,212.15132 c 14.754767,-14.75584 26.950547,-26.78649 27.101647,-26.73476 0.24189,0.0828 49.26971,50.70643 51.09705,52.7602 l 0.7148,0.80338 H 112.6534 59.783277 Z"
         id="path7609" />
      <path
         style="fill:#000000;fill-opacity:0.75;stroke:#4c8adc;stroke-width:1;stroke-linejoin:round;stroke-dasharray:none;stroke-opacity:0.285106"
         d="m 141.50748,158.7167 26.99736,-25.59003 -0.1729,26.33388 c -0.0951,14.48358 -0.33704,38.15276 -0.53772,52.59819 l -0.3648,26.2644 -26.45964,-27.00826 -26.45967,-27.00824 z"
         id="path7611" />
    </g>
    <g
       inkscape:label="Layer 1"
       id="layer1-0"
       transform="matrix(0.12557179,0,0,0.12557179,35.54391,-1.5825576)">
      <path
         style="fill:#000000;fill-opacity:0.75;stroke:#4c8adc;stroke-width:1;stroke-linejoin:round;stroke-dasharray:none;stroke-opacity:0.285106"
         d="m 81.600703,51.877231 13.03708,12.667372 0.37922,26.0728 0.37922,26.072767 -13.13481,-12.75826 -13.13486,-12.758197 -0.28148,-25.98191 -0.28149,-25.981861 z"
         id="path7599-3" />
      <path
         style="fill:#000000;fill-opacity:0.75;stroke:#4c8adc;stroke-width:1;stroke-linejoin:round;stroke-dasharray:none;stroke-opacity:0.285106"
         d="m 123.39127,173.13299 0.008,24.94175 -5.14245,-4.81175 c -2.82834,-2.64647 -8.53159,-8.16847 -12.67387,-12.27113 l -7.531434,-7.45935 12.665724,-12.6706 12.66572,-12.67059 z"
         id="path7601-2" />
      <path
         style="fill:#000000;fill-opacity:0.75;stroke:#4c8adc;stroke-width:1;stroke-linejoin:round;stroke-dasharray:none;stroke-opacity:0.285106"
         d="M 83.137696,213.33632 70.09996,200.29459 83.23351,187.16507 96.36706,174.0355 l 13.03774,13.03776 13.0378,13.03772 -13.13361,13.13354 -13.13356,13.13353 z"
         id="path7603-2" />
      <path
         style="fill:#000000;fill-opacity:0.75;stroke:#4c8adc;stroke-width:1;stroke-linejoin:round;stroke-dasharray:none;stroke-opacity:0.285106"
         d="m 69.182294,201.63516 c 0.09054,0.0867 5.751608,5.80975 12.580247,12.71792 l 12.415699,12.5603 -12.529357,12.3362 c -11.247477,11.07409 -12.552842,12.24576 -12.758846,11.45216 -0.25575,-0.98525 0.03212,-49.31573 0.292257,-49.06658 z"
         id="path7605-1" />
      <path
         style="fill:#000000;fill-opacity:0.75;stroke:#4c8adc;stroke-width:1;stroke-linejoin:round;stroke-dasharray:none;stroke-opacity:0.285106"
         d="m 67.226371,54.076791 0.03,25.983002 -25.76961,0.0298 -25.76961,0.0298 19.05952,-19.25228 c 10.48275,-10.588762 22.06558,-22.294547 25.73962,-26.012837 l 6.68008,-6.76052 z"
         id="path7607-4" />
      <path
         style="fill:#000000;fill-opacity:0.75;stroke:#4c8adc;stroke-width:1;stroke-linejoin:round;stroke-dasharray:none;stroke-opacity:0.285106"
         d="m 95.871354,119.90439 c 14.729726,14.78085 26.738786,26.99789 26.686786,27.1489 -0.0833,0.24174 -50.793498,49.17995 -52.850497,51.00365 l -0.804637,0.71338 0.09305,-52.87013 0.09305,-52.870157 z"
         id="path7609-7" />
      <path
         style="fill:#000000;fill-opacity:0.75;stroke:#4c8adc;stroke-width:1;stroke-linejoin:round;stroke-dasharray:none;stroke-opacity:0.285106"
         d="m 152.28827,227.51589 -26.59392,26.00905 -0.2389,-26.33337 c -0.1314,-14.4833 -0.25957,-38.15336 -0.28479,-52.60017 l -0.0459,-26.26689 26.87872,26.59123 26.87875,26.59119 z"
         id="path7611-7" />
    </g>
    <g
       inkscape:label="Layer 1"
       id="layer1-2"
       transform="matrix(0.13888047,0,0,0.13888047,146.70383,-34.116567)">
      <path
         style="fill:#000000;fill-opacity:0.75;stroke:#4c8adc;stroke-width:1;stroke-linejoin:round;stroke-dasharray:none;stroke-opacity:0.285106"
         d="m -506.59267,396.19114 -18.17743,0.092 -18.34762,18.52835 -18.3476,18.52832 18.31088,-0.0898 18.31088,-0.0897 18.21416,-18.5306 18.21414,-18.53055 z"
         id="path7599-9" />
      <path
         style="fill:#000000;fill-opacity:0.75;stroke:#4c8adc;stroke-width:1;stroke-linejoin:round;stroke-dasharray:none;stroke-opacity:0.285106"
         d="m -563.34802,432.87047 -17.50938,17.76268 -0.28212,-7.03692 c -0.15516,-3.8703 -0.33777,-11.80668 -0.40579,-17.6364 l -0.12369,-10.59949 17.91504,-0.12636 17.91503,-0.12635 z"
         id="path7601-7" />
      <path
         style="fill:#000000;fill-opacity:0.75;stroke:#4c8adc;stroke-width:1;stroke-linejoin:round;stroke-dasharray:none;stroke-opacity:0.285106"
         d="m -448.84197,293.31732 -5.45193,-17.61663 17.74067,-5.4903 17.74068,-5.49035 5.45378,17.61313 5.45385,17.61311 -17.74259,5.49383 -17.74254,5.49384 z"
         id="path7603-6" />
      <path
         style="fill:#000000;fill-opacity:0.75;stroke:#4c8adc;stroke-width:1;stroke-linejoin:round;stroke-dasharray:none;stroke-opacity:0.285106"
         d="m -381.43432,460.97637 c -0.12531,0.003 -8.17521,0.001 -17.88877,-0.005 l -17.66099,-0.0109 0.0456,-17.58308 c 0.041,-15.78415 0.12645,-17.53614 0.83541,-17.12431 0.88018,0.51129 35.02879,34.71349 34.66871,34.72312 z"
         id="path7605-8" />
      <path
         style="fill:#000000;fill-opacity:0.75;stroke:#4c8adc;stroke-width:1;stroke-linejoin:round;stroke-dasharray:none;stroke-opacity:0.285106"
         d="m -444.80164,395.90561 25.9823,-0.19231 0.19078,25.76892 0.19078,25.76892 -19.37097,-18.93888 c -10.65404,-10.4164 -22.43194,-21.92588 -26.17311,-25.57662 l -6.80212,-6.63772 z"
         id="path7607-2" />
      <path
         style="fill:#000000;fill-opacity:0.75;stroke:#4c8adc;stroke-width:1;stroke-linejoin:round;stroke-dasharray:none;stroke-opacity:0.285106"
         d="m -417.65796,338.85378 c -14.85211,14.65787 -27.12724,26.60754 -27.278,26.55481 -0.24133,-0.0845 -48.93304,-51.03141 -50.74674,-53.09723 l -0.70947,-0.80809 52.86905,0.34945 52.86909,0.34945 z"
         id="path7609-9" />
      <path
         style="fill:#000000;fill-opacity:0.75;stroke:#4c8adc;stroke-width:1;stroke-linejoin:round;stroke-dasharray:none;stroke-opacity:0.285106"
         d="m -444.83504,367.47168 25.96993,26.63212 -26.3337,0.20019 c -14.48347,0.11011 -38.1537,0.20349 -52.60053,0.20747 l -26.26692,0.007 26.63071,-26.8396 26.63067,-26.83963 z"
         id="path7611-9" />
      <g
         inkscape:label="Layer 1"
         id="layer1-7"
         transform="matrix(0.89432042,0,0,0.89432042,-382.04378,243.35395)">
        <path
           style="fill:#000000;fill-opacity:0.75;stroke:#4c8adc;stroke-width:1;stroke-linejoin:round;stroke-dasharray:none;stroke-opacity:0.285106"
           d="m 231.50223,224.62404 -12.68877,-13.01625 -26.07339,-0.33637 -26.07335,-0.33636 12.77984,13.11381 12.77977,13.11387 25.98234,0.23877 25.98229,0.23878 z"
           id="path7599-1" />
        <path
           style="fill:#000000;fill-opacity:0.75;stroke:#4c8adc;stroke-width:1;stroke-linejoin:round;stroke-dasharray:none;stroke-opacity:0.285106"
           d="m 60.395817,36.809944 17.741036,-17.5313 0.189725,7.04002 c 0.104339,3.872 0.182757,11.8101 0.174237,17.64021 l -0.01546,10.6002 -17.915156,-0.10883 -17.915146,-0.10883 z"
           id="path7601-26" />
        <path
           style="fill:#000000;fill-opacity:0.75;stroke:#4c8adc;stroke-width:1;stroke-linejoin:round;stroke-dasharray:none;stroke-opacity:0.285106"
           d="m 113.67741,212.95429 -13.03013,-13.04933 13.14122,-13.12186 13.14121,-13.1219 13.03013,13.04536 13.03019,13.04533 -13.14128,13.12588 -13.14122,13.12586 z"
           id="path7603-1" />
        <path
           style="fill:#000000;fill-opacity:0.75;stroke:#4c8adc;stroke-width:1;stroke-linejoin:round;stroke-dasharray:none;stroke-opacity:0.285106"
           d="m 78.263594,154.39832 c -0.09109,-0.0861 -5.805468,-5.75593 -12.698301,-12.60006 L 53.032884,129.35441 65.446511,116.90175 c 11.143633,-11.17857 12.437982,-12.36239 12.651382,-11.57075 0.264938,0.98282 0.428246,49.31388 0.165792,49.06717 z"
           id="path7605-7" />
        <path
           style="fill:#000000;fill-opacity:0.75;stroke:#4c8adc;stroke-width:1;stroke-linejoin:round;stroke-dasharray:none;stroke-opacity:0.285106"
           d="m 135.59787,219.33876 18.37847,-18.36706 18.21625,18.2275 18.21625,18.2275 -27.09071,0.0966 c -14.8999,0.0531 -31.36754,0.11594 -36.59475,0.13957 l -9.50401,0.0429 z"
           id="path7607-6" />
        <path
           style="fill:#000000;fill-opacity:0.75;stroke:#4c8adc;stroke-width:1;stroke-linejoin:round;stroke-dasharray:none;stroke-opacity:0.285106"
           d="m 117.90641,122.7804 c -20.866273,0.19304 -37.99729,0.23414 -38.068878,0.0914 -0.114529,-0.22861 0.364444,-70.700176 0.499262,-73.445892 l 0.05274,-1.074046 37.728116,37.038466 37.72814,37.038492 z"
           id="path7609-5" />
        <path
           style="fill:#000000;fill-opacity:0.75;stroke:#4c8adc;stroke-width:1;stroke-linejoin:round;stroke-dasharray:none;stroke-opacity:0.285106"
           d="m 155.10579,161.86306 -0.61994,37.19305 -18.68677,-18.55556 C 125.5214,170.29505 108.78613,153.5553 98.609606,143.30107 l -18.50258,-18.6442 37.809514,0.007 37.8095,0.006 z"
           id="path7611-0" />
      </g>
      <g
         inkscape:label="Layer 1"
         id="layer1-3"
         transform="matrix(1.1698214,0,0,1.1698214,-134.87536,180.19609)">
        <path
           style="fill:#000000;fill-opacity:0.75;stroke:#4c8adc;stroke-width:1;stroke-linejoin:round;stroke-dasharray:none;stroke-opacity:0.285106"
           d="m 132.4429,224.24882 -12.68877,-13.01625 -26.073389,-0.33637 -26.07335,-0.33636 12.77984,13.11381 12.77977,13.11387 25.982339,0.23877 25.98229,0.23878 z"
           id="path7599-7" />
        <path
           style="fill:#000000;fill-opacity:0.75;stroke:#4c8adc;stroke-width:1;stroke-linejoin:round;stroke-dasharray:none;stroke-opacity:0.285106"
           d="m 146.82868,211.56738 24.94067,0.23176 -4.86097,5.09596 c -2.67353,2.80277 -8.2501,8.45268 -12.39238,12.55533 l -7.53141,7.45938 -12.54826,-12.78694 -12.54825,-12.78693 z"
           id="path7601-24" />
        <path
           style="fill:#000000;fill-opacity:0.75;stroke:#4c8adc;stroke-width:1;stroke-linejoin:round;stroke-dasharray:none;stroke-opacity:0.285106"
           d="m 131.84215,196.29046 -13.03013,-13.04933 13.14122,-13.12186 13.14121,-13.1219 13.03013,13.04536 13.03019,13.04533 -13.14128,13.12588 -13.14122,13.12586 z"
           id="path7603-18" />
        <path
           style="fill:#000000;fill-opacity:0.75;stroke:#4c8adc;stroke-width:1;stroke-linejoin:round;stroke-dasharray:none;stroke-opacity:0.285106"
           d="m 92.106906,209.46925 c 0.08613,-0.0911 5.758139,-5.80328 12.604894,-12.69351 l 12.44862,-12.52767 12.44793,12.41837 c 11.17433,11.14789 12.35766,12.44268 11.56594,12.65578 -0.98292,0.26457 -49.314044,0.40948 -49.067234,0.14712 z"
           id="path7605-2" />
        <path
           style="fill:#000000;fill-opacity:0.75;stroke:#4c8adc;stroke-width:1;stroke-linejoin:round;stroke-dasharray:none;stroke-opacity:0.285106"
           d="m 111.72265,122.36084 -18.300094,-18.44517 18.293654,-18.149824 18.29365,-18.149822 -0.002,27.090882 c -0.001,14.899994 0.002,31.367754 0.006,36.595014 l 0.008,9.50411 z"
           id="path7607-60" />
        <path
           style="fill:#000000;fill-opacity:0.75;stroke:#4c8adc;stroke-width:1;stroke-linejoin:round;stroke-dasharray:none;stroke-opacity:0.285106"
           d="m 116.43039,129.52794 c 14.79939,14.71111 26.86604,26.87127 26.81478,27.02251 -0.0822,0.24212 -50.56059,49.41937 -52.60895,51.25277 l -0.80127,0.71717 -0.15673,-52.86998 -0.15674,-52.87001 z"
           id="path7609-3" />
        <path
           style="fill:#000000;fill-opacity:0.75;stroke:#4c8adc;stroke-width:1;stroke-linejoin:round;stroke-dasharray:none;stroke-opacity:0.285106"
           d="m 51.562835,208.77207 -37.198172,0.0573 18.212283,-19.02149 c 10.016699,-10.46177 26.449009,-27.49903 36.516259,-37.86055 l 18.30427,-18.83893 0.68134,37.80337 0.68234,37.80335 z"
           id="path7611-94" />
      </g>
      <g
         inkscape:label="Layer 1"
         id="layer1-32"
         transform="matrix(1.2084517,0,0,1.2084517,106.52327,192.35807)">
        <path
           style="fill:#000000;fill-opacity:0.75;stroke:#4c8adc;stroke-width:1;stroke-linejoin:round;stroke-dasharray:none;stroke-opacity:0.285106"
           d="m 33.906275,161.02343 0.09251,-18.17743 -18.34115,-18.53476 -18.3411223,-18.53471 -0.096078,18.31085 -0.09617,18.31084 18.3447583,18.40132 18.344713,18.4013 z"
           id="path7599-6" />
        <path
           style="fill:#000000;fill-opacity:0.75;stroke:#4c8adc;stroke-width:1;stroke-linejoin:round;stroke-dasharray:none;stroke-opacity:0.285106"
           d="m 115.10652,194.83835 0.10774,24.94151 -5.16165,-4.79115 c -2.83891,-2.63514 -8.5642,-8.13429 -12.722848,-12.22034 l -7.5612,-7.42918 12.614948,-12.72114 12.61495,-12.72114 z"
           id="path7601-9" />
        <path
           style="fill:#000000;fill-opacity:0.75;stroke:#4c8adc;stroke-width:1;stroke-linejoin:round;stroke-dasharray:none;stroke-opacity:0.285106"
           d="m 111.40357,113.38362 -0.007,-18.44096 18.5708,-0.007 18.57083,-0.007 0.01,18.43816 0.01,18.43818 -18.57369,0.01 -18.57363,0.01 z"
           id="path7603-0" />
        <path
           style="fill:#000000;fill-opacity:0.75;stroke:#4c8adc;stroke-width:1;stroke-linejoin:round;stroke-dasharray:none;stroke-opacity:0.285106"
           d="m 111.24337,93.149583 c 0.0861,-0.0911 5.75814,-5.80328 12.60489,-12.69351 l 12.44862,-12.52767 12.44793,12.41837 c 11.17433,11.14789 12.35766,12.44268 11.56594,12.65578 -0.98292,0.26457 -49.31404,0.40948 -49.06723,0.14712 z"
           id="path7605-0" />
        <path
           style="fill:#000000;fill-opacity:0.75;stroke:#4c8adc;stroke-width:1;stroke-linejoin:round;stroke-dasharray:none;stroke-opacity:0.285106"
           d="m 17.401784,83.194826 18.449255,-18.29598 18.14574,18.2977 18.145736,18.297694 -27.090876,-0.008 c -14.9,-0.004 -31.367756,-0.005 -36.5950168,-0.002 l -9.504111,0.006 z"
           id="path7607-3" />
        <path
           style="fill:#000000;fill-opacity:0.75;stroke:#4c8adc;stroke-width:1;stroke-linejoin:round;stroke-dasharray:none;stroke-opacity:0.285106"
           d="m 73.930683,171.15756 c -0.141469,-20.86668 -0.140242,-37.99776 0.0027,-38.06899 0.228899,-0.11395 70.699057,0.53916 73.444437,0.68071 l 1.07392,0.0553 -37.13159,37.63648 -37.131618,37.6365 z"
           id="path7609-95" />
        <path
           style="fill:#000000;fill-opacity:0.75;stroke:#4c8adc;stroke-width:1;stroke-linejoin:round;stroke-dasharray:none;stroke-opacity:0.285106"
           d="m 72.401274,140.47557 -0.54276,37.19425 -18.725225,-18.51674 C 42.834458,148.96892 26.064492,132.26391 15.866717,122.03083 l -18.5412058,-18.60578 37.8094428,-0.0714 37.809438,-0.0724 z"
           id="path7611-3" />
      </g>
      <g
         inkscape:label="Layer 1"
         id="layer1-9"
         transform="matrix(1.0374752,0,0,1.0374752,339.2475,230.62507)">
        <path
           style="fill:#000000;fill-opacity:0.75;stroke:#4c8adc;stroke-width:1;stroke-linejoin:round;stroke-dasharray:none;stroke-opacity:0.285106"
           d="m 149.87065,132.22103 0.18636,-18.17671 18.62336,-18.251166 18.62335,-18.251122 -0.18487,18.310165 -0.18478,18.310163 -18.62493,18.11769 -18.62489,18.11767 z"
           id="path7599-0" />
        <path
           style="fill:#000000;fill-opacity:0.75;stroke:#4c8adc;stroke-width:1;stroke-linejoin:round;stroke-dasharray:none;stroke-opacity:0.285106"
           d="M 46.008597,188.11168 28.225,205.5998 28.05239,198.55935 c -0.09493,-3.87226 -0.154054,-11.81053 -0.131367,-17.64059 l 0.04123,-10.60013 17.914831,0.15237 17.91483,0.15238 z"
           id="path7601-6" />
        <path
           style="fill:#000000;fill-opacity:0.75;stroke:#4c8adc;stroke-width:1;stroke-linejoin:round;stroke-dasharray:none;stroke-opacity:0.285106"
           d="M 101.53837,72.335259 88.420621,59.374022 101.47315,46.163944 l 13.05256,-13.210097 13.11787,12.957135 13.11788,12.957149 -13.05243,13.214241 -13.05239,13.2142 z"
           id="path7603-17" />
        <path
           style="fill:#000000;fill-opacity:0.75;stroke:#4c8adc;stroke-width:1;stroke-linejoin:round;stroke-dasharray:none;stroke-opacity:0.285106"
           d="m -8.816781,74.512187 c 0.125297,-0.0037 8.17511796,-0.04094 17.88859,-0.08241 l 17.660832,-0.07539 0.04031,17.583096 c 0.03612,15.784167 -0.04076,17.536547 -0.751729,17.128187 -0.882669,-0.50698 -35.197985,-34.541921 -34.83796,-34.553314 z"
           id="path7605-3" />
        <path
           style="fill:#000000;fill-opacity:0.75;stroke:#4c8adc;stroke-width:1;stroke-linejoin:round;stroke-dasharray:none;stroke-opacity:0.285106"
           d="m 121.83949,106.67988 0.0617,25.98295 -25.769556,0.0612 -25.769548,0.0613 19.036025,-19.27551 C 99.867662,102.90798 111.43636,91.188246 115.10618,87.46579 l 6.67201,-6.768486 z"
           id="path7607-8" />
        <path
           style="fill:#000000;fill-opacity:0.75;stroke:#4c8adc;stroke-width:1;stroke-linejoin:round;stroke-dasharray:none;stroke-opacity:0.285106"
           d="m 65.886587,168.52018 c -20.866334,0.18582 -37.997378,0.221 -38.068911,0.0782 -0.114437,-0.22865 0.388888,-70.700042 0.524603,-73.445712 l 0.05302,-1.07404 37.715321,37.051512 37.71533,37.05154 z"
           id="path7609-70" />
        <path
           style="fill:#000000;fill-opacity:0.75;stroke:#4c8adc;stroke-width:1;stroke-linejoin:round;stroke-dasharray:none;stroke-opacity:0.285106"
           d="m 147.82144,171.99444 -0.54276,37.19425 -18.72522,-18.51674 C 118.25463,180.48779 101.48466,163.78278 91.286884,153.5497 l -18.5412,-18.60578 37.809436,-0.0714 37.80944,-0.0724 z"
           id="path7611-36" />
      </g>
      <g
         inkscape:label="Layer 1"
         id="layer1-10"
         transform="matrix(0.79934515,0,0,0.79934515,590.72011,250.52349)">
        <path
           style="fill:#000000;fill-opacity:0.75;stroke:#4c8adc;stroke-width:1;stroke-linejoin:round;stroke-dasharray:none;stroke-opacity:0.285106"
           d="m 47.299739,216.36901 12.74028,-12.96583 -0.22463,-26.07459 -0.22466,-26.07456 -12.83584,13.05901 -12.8359,13.05894 0.32026,25.98146 0.32025,25.98141 z"
           id="path7599-2" />
        <path
           style="fill:#000000;fill-opacity:0.75;stroke:#4c8adc;stroke-width:1;stroke-linejoin:round;stroke-dasharray:none;stroke-opacity:0.285106"
           d="m 32.563,237.48353 0.231699,24.94067 -5.185398,-4.76543 c -2.851974,-2.621 -8.604527,-8.09163 -12.783429,-12.15696 L 7.2278399,238.1103 19.779406,225.32662 32.330977,212.54294 Z"
           id="path7601-4" />
        <path
           style="fill:#000000;fill-opacity:0.75;stroke:#4c8adc;stroke-width:1;stroke-linejoin:round;stroke-dasharray:none;stroke-opacity:0.285106"
           d="m 117.03325,32.246331 -0.13651,-18.440455 18.57029,-0.137422 18.57033,-0.137414 0.13949,18.437635 0.13949,18.437653 -18.57316,0.14044 -18.57311,0.140439 z"
           id="path7603-04" />
        <path
           style="fill:#000000;fill-opacity:0.75;stroke:#4c8adc;stroke-width:1;stroke-linejoin:round;stroke-dasharray:none;stroke-opacity:0.285106"
           d="m 117.13961,261.38367 c -0.12532,0.003 -8.17523,-0.002 -17.888777,-0.011 l -17.660984,-0.0168 0.05153,-17.58306 c 0.04633,-15.78414 0.13236,-17.53611 0.841186,-17.12404 0.88001,0.51158 35.017085,34.7253 34.657005,34.73481 z"
           id="path7605-31" />
        <path
           style="fill:#000000;fill-opacity:0.75;stroke:#4c8adc;stroke-width:1;stroke-linejoin:round;stroke-dasharray:none;stroke-opacity:0.285106"
           d="m 80.673543,222.13988 -18.242788,-18.50184 18.349884,-18.09297 18.349809,-18.09303 -0.08598,27.09074 c -0.04688,14.89994 -0.09529,31.36763 -0.107334,36.59488 l -0.02135,9.50408 z"
           id="path7607-7" />
        <path
           style="fill:#000000;fill-opacity:0.75;stroke:#4c8adc;stroke-width:1;stroke-linejoin:round;stroke-dasharray:none;stroke-opacity:0.285106"
           d="M 88.569338,122.2329 C 73.789525,107.50213 61.739048,95.325925 61.790538,95.174745 61.873054,94.932735 112.41679,45.822641 114.46755,43.99193 l 0.80216,-0.716179 0.0864,52.870144 0.0864,52.870175 z"
           id="path7609-94" />
        <path
           style="fill:#000000;fill-opacity:0.75;stroke:#4c8adc;stroke-width:1;stroke-linejoin:round;stroke-dasharray:none;stroke-opacity:0.285106"
           d="m 88.106555,176.22796 -26.70432,25.89568 -0.12686,-26.33415 c -0.0698,-14.48372 -0.0972,-38.15413 -0.061,-52.6009 l 0.0662,-26.266839 26.76496,26.705719 26.765655,26.70502 z"
           id="path7611-70" />
      </g>
      <g
         inkscape:label="Layer 1"
         id="layer1-5"
         transform="matrix(0.99570891,0,0,0.99570891,826.98041,260.86112)">
        <path
           style="fill:#000000;fill-opacity:0.75;stroke:#4c8adc;stroke-width:1;stroke-linejoin:round;stroke-dasharray:none;stroke-opacity:0.285106"
           d="M 27.270113,161.70476 9.093411,161.8918 -9.536438,143.64725 -28.166244,125.4027 l 18.310106,-0.19126 18.310096,-0.19135 18.496433,18.24886 18.496401,18.24881 z"
           id="path7599-22" />
        <path
           style="fill:#000000;fill-opacity:0.75;stroke:#4c8adc;stroke-width:1;stroke-linejoin:round;stroke-dasharray:none;stroke-opacity:0.285106"
           d="m 67.973653,143.69725 17.692815,-17.57996 0.209063,7.03946 c 0.114979,3.87172 0.215202,11.80958 0.222698,17.63968 l 0.01365,10.6002 -17.915377,-0.0596 -17.915381,-0.0596 z"
           id="path7601-249" />
        <path
           style="fill:#000000;fill-opacity:0.75;stroke:#4c8adc;stroke-width:1;stroke-linejoin:round;stroke-dasharray:none;stroke-opacity:0.285106"
           d="m 87.833061,143.68808 -0.13651,-18.44046 18.570289,-0.13742 18.57033,-0.13741 0.13949,18.43763 0.13949,18.43765 -18.57316,0.14044 -18.573109,0.14044 z"
           id="path7603-7" />
        <path
           style="fill:#000000;fill-opacity:0.75;stroke:#4c8adc;stroke-width:1;stroke-linejoin:round;stroke-dasharray:none;stroke-opacity:0.285106"
           d="m 126.193,160.7069 c -0.003,-0.12532 -0.0108,-8.17522 -0.0169,-17.88877 l -0.0107,-17.66099 17.58312,0.0241 c 15.7842,0.0217 17.5363,0.10502 17.12534,0.81449 -0.51021,0.88081 -34.67067,35.07118 -34.68074,34.71112 z"
           id="path7605-72" />
        <path
           style="fill:#000000;fill-opacity:0.75;stroke:#4c8adc;stroke-width:1;stroke-linejoin:round;stroke-dasharray:none;stroke-opacity:0.285106"
           d="m 65.700096,143.32202 -18.45588,18.28929 -18.139084,-18.3043 -18.139144,-18.30423 27.09087,0.0178 c 14.900011,0.009 31.367771,0.0164 36.595035,0.0153 l 9.504103,-0.003 z"
           id="path7607-0" />
        <path
           style="fill:#000000;fill-opacity:0.75;stroke:#4c8adc;stroke-width:1;stroke-linejoin:round;stroke-dasharray:none;stroke-opacity:0.285106"
           d="m 36.087232,83.706538 c -1.16503,20.834612 -2.23865,37.932012 -2.38577,37.994142 -0.23558,0.0994 -70.526655,-4.96376 -73.257784,-5.27689 L -40.624679,116.30137 -1.2098901,81.063134 38.204922,45.824867 Z"
           id="path7609-90" />
        <path
           style="fill:#000000;fill-opacity:0.75;stroke:#4c8adc;stroke-width:1;stroke-linejoin:round;stroke-dasharray:none;stroke-opacity:0.285106"
           d="M 77.912031,121.01536 40.809359,118.35102 60.36447,100.71296 C 71.119716,91.012036 88.754502,75.222706 99.552812,65.625456 l 19.633528,-17.449235 -2.08628,37.751895 -2.0853,37.751964 z"
           id="path7611-71" />
      </g>
    </g>
  </g>
</svg>
