<?xml version="1.0" encoding="UTF-8" standalone="no"?>
<!-- Created with Inkscape (http://www.inkscape.org/) -->

<svg
   width="131.5127mm"
   height="219.92751mm"
   viewBox="0 0 131.5127 219.9275"
   version="1.1"
   id="svg1869"
   inkscape:version="1.2.1 (9c6d41e, 2022-07-14)"
   sodipodi:docname="person_with_suitcase.svg"
   xmlns:inkscape="http://www.inkscape.org/namespaces/inkscape"
   xmlns:sodipodi="http://sodipodi.sourceforge.net/DTD/sodipodi-0.dtd"
   xmlns="http://www.w3.org/2000/svg"
   xmlns:svg="http://www.w3.org/2000/svg">
  <sodipodi:namedview
     id="namedview1871"
     pagecolor="#ffffff"
     bordercolor="#666666"
     borderopacity="1.0"
     inkscape:showpageshadow="2"
     inkscape:pageopacity="0.0"
     inkscape:pagecheckerboard="0"
     inkscape:deskcolor="#d1d1d1"
     inkscape:document-units="mm"
     showgrid="true"
     inkscape:zoom="0.70513298"
     inkscape:cx="362.343"
     inkscape:cy="491.39667"
     inkscape:window-width="1214"
     inkscape:window-height="899"
     inkscape:window-x="295"
     inkscape:window-y="38"
     inkscape:window-maximized="0"
     inkscape:current-layer="layer1">
    <inkscape:grid
       type="xygrid"
       id="grid1990"
       originx="-3.9645247"
       originy="-114.80078" />
  </sodipodi:namedview>
  <defs
     id="defs1866" />
  <g
     inkscape:label="Layer 1"
     inkscape:groupmode="layer"
     id="layer1"
     transform="translate(-3.9645204,-114.80084)">
    <rect
       style="font-variation-settings:normal;opacity:1;vector-effect:none;fill:none;fill-opacity:1;fill-rule:evenodd;stroke-width:0.491555;stroke-linecap:butt;stroke-linejoin:miter;stroke-miterlimit:4;stroke-dasharray:none;stroke-dashoffset:0;stroke-opacity:1;-inkscape-stroke:none;stop-color:#000000;stop-opacity:1"
       id="rect2762"
       width="52.156235"
       height="22.138258"
       x="55.177456"
       y="243.7709"
       ry="8.5252748e-07" />
    <path
       style="fill:#000000;fill-opacity:0.75;stroke:#4c8adc;stroke-width:1;stroke-linejoin:round;stroke-dasharray:none;stroke-opacity:0.285106"
       d="m 57.95672,209.79223 -0.0497,-18.17761 -18.48556,-18.39074 -18.485463,-18.39061 0.04706,18.31096 0.04706,18.31103 18.488138,18.25725 18.48812,18.25722 z"
       id="path7599" />
    <path
       style="fill:#000000;fill-opacity:0.75;stroke:#4c8adc;stroke-width:1;stroke-linejoin:round;stroke-dasharray:none;stroke-opacity:0.285106"
       d="m 32.404399,229.94894 -0.0566,-24.94167 5.15179,4.80174 c 2.833501,2.64097 8.547461,8.15186 12.697721,12.24644 l 7.54594,7.4447 -12.64106,12.69521 -12.641061,12.6952 z"
       id="path7601" />
    <path
       style="fill:#000000;fill-opacity:0.75;stroke:#4c8adc;stroke-width:1;stroke-linejoin:round;stroke-dasharray:none;stroke-opacity:0.285106"
       d="m 30.069454,154.83737 -18.221426,-2.83708 2.857024,-18.34971 2.857023,-18.34975 18.219077,2.83388 18.21912,2.83379 -2.85471,18.35299 -2.85469,18.35295 z"
       id="path7603" />
    <path
       style="fill:#000000;fill-opacity:0.75;stroke:#4c8adc;stroke-width:1;stroke-linejoin:round;stroke-dasharray:none;stroke-opacity:0.285106"
       d="m 33.1981,256.10379 c 0.08628,-0.0909 5.795784,-5.76569 12.68741,-12.61103 l 12.530154,-12.44613 12.366532,12.49943 c 11.101325,11.22058 12.276219,12.52306 11.483073,12.73102 -0.984629,0.25815 -49.315674,0.0875 -49.067149,-0.17328 z"
       id="path7605" />
    <path
       style="fill:#000000;fill-opacity:0.75;stroke:#4c8adc;stroke-width:1;stroke-linejoin:round;stroke-dasharray:none;stroke-opacity:0.285106"
       d="m 108.99436,310.36822 -25.982644,-0.14108 0.139902,-25.76924 0.139931,-25.76926 19.126401,19.18586 c 10.51954,10.55219 22.14875,22.21186 25.84269,25.91035 l 6.71665,6.72416 z"
       id="path7607" />
    <path
       style="fill:#000000;fill-opacity:0.75;stroke:#4c8adc;stroke-width:1;stroke-linejoin:round;stroke-dasharray:none;stroke-opacity:0.285106"
       d="m 42.541318,334.22484 c -20.86714,0.0236 -37.9979312,-0.0745 -38.0683559,-0.21783 -0.1127413,-0.22947 0.9386737,-70.69487 1.0957873,-73.4394 l 0.061497,-1.07358 37.4257136,37.34401 37.425668,37.34394 z"
       id="path7609" />
    <path
       style="fill:#000000;fill-opacity:0.75;stroke:#4c8adc;stroke-width:1;stroke-linejoin:round;stroke-dasharray:none;stroke-opacity:0.285106"
       d="m 81.538847,295.11992 -0.47029,37.19523 -18.761265,-18.48024 C 51.988671,303.67083 35.186181,286.99856 24.968512,276.78531 L 6.3907976,258.21598 44.200029,258.07042 82.009266,257.92476 Z"
       id="path7611" />
  </g>
</svg>
