<?xml version="1.0" encoding="UTF-8" standalone="no"?>
<!-- Created with Inkscape (http://www.inkscape.org/) -->

<svg
   width="165.52341mm"
   height="184.34393mm"
   viewBox="0 0 165.52341 184.34393"
   version="1.1"
   id="svg1869"
   inkscape:version="1.2.1 (9c6d41e, 2022-07-14)"
   sodipodi:docname="rabbit.svg"
   xmlns:inkscape="http://www.inkscape.org/namespaces/inkscape"
   xmlns:sodipodi="http://sodipodi.sourceforge.net/DTD/sodipodi-0.dtd"
   xmlns="http://www.w3.org/2000/svg"
   xmlns:svg="http://www.w3.org/2000/svg">
  <sodipodi:namedview
     id="namedview1871"
     pagecolor="#ffffff"
     bordercolor="#666666"
     borderopacity="1.0"
     inkscape:showpageshadow="2"
     inkscape:pageopacity="0.0"
     inkscape:pagecheckerboard="0"
     inkscape:deskcolor="#d1d1d1"
     inkscape:document-units="mm"
     showgrid="true"
     inkscape:zoom="0.70513298"
     inkscape:cx="272.99815"
     inkscape:cy="358.08848"
     inkscape:window-width="1214"
     inkscape:window-height="899"
     inkscape:window-x="275"
     inkscape:window-y="38"
     inkscape:window-maximized="0"
     inkscape:current-layer="layer1">
    <inkscape:grid
       type="xygrid"
       id="grid1990"
       originx="-51.835613"
       originy="-81.565195" />
  </sodipodi:namedview>
  <defs
     id="defs1866" />
  <g
     inkscape:label="Layer 1"
     inkscape:groupmode="layer"
     id="layer1"
     transform="translate(-51.835609,-81.565234)">
    <rect
       style="font-variation-settings:normal;opacity:1;vector-effect:none;fill:none;fill-opacity:1;fill-rule:evenodd;stroke-width:0.491555;stroke-linecap:butt;stroke-linejoin:miter;stroke-miterlimit:4;stroke-dasharray:none;stroke-dashoffset:0;stroke-opacity:1;-inkscape-stroke:none;stop-color:#000000;stop-opacity:1"
       id="rect2762"
       width="52.156235"
       height="22.138258"
       x="55.177456"
       y="243.7709"
       ry="8.5252748e-07" />
    <path
       style="fill:#000000;fill-opacity:0.75;stroke:#4c8adc;stroke-width:1;stroke-linejoin:round;stroke-dasharray:none;stroke-opacity:0.285106"
       d="m 112.49573,126.45777 4.43779,-17.62764 22.37953,-13.382511 22.37941,-13.38244 -4.46747,17.7577 -4.46744,17.757751 -22.34978,13.2524 -22.34975,13.25237 z"
       id="path7599" />
    <path
       style="fill:#000000;fill-opacity:0.75;stroke:#4c8adc;stroke-width:1;stroke-linejoin:round;stroke-dasharray:none;stroke-opacity:0.285106"
       d="m 77.274959,194.12653 24.939481,0.33618 -4.882285,5.07553 c -2.685258,2.79155 -8.285467,8.41802 -12.444907,12.50327 L 77.32463,219.46926 64.830083,206.62983 52.335539,193.7904 Z"
       id="path7601" />
    <path
       style="fill:#000000;fill-opacity:0.75;stroke:#4c8adc;stroke-width:1;stroke-linejoin:round;stroke-dasharray:none;stroke-opacity:0.285106"
       d="m 89.891741,180.91278 -13.037736,-13.04173 13.13355,-13.12952 13.133545,-13.12957 13.03774,13.03776 13.0378,13.03772 -13.13361,13.13354 -13.13355,13.13353 z"
       id="path7603" />
    <path
       style="fill:#000000;fill-opacity:0.75;stroke:#4c8adc;stroke-width:1;stroke-linejoin:round;stroke-dasharray:none;stroke-opacity:0.285106"
       d="m 192.45446,157.59032 c 0.0885,0.0888 5.61569,5.94123 12.28272,13.0055 l 12.12185,12.84412 -12.81134,12.04309 c -11.50062,10.81097 -12.83273,11.95214 -13.02033,11.15398 -0.23289,-0.9909 1.17277,-49.30179 1.4271,-49.04669 z"
       id="path7605" />
    <path
       style="fill:#000000;fill-opacity:0.75;stroke:#4c8adc;stroke-width:1;stroke-linejoin:round;stroke-dasharray:none;stroke-opacity:0.285106"
       d="m 81.419622,91.752708 25.982488,0.165664 -0.1643,25.769108 -0.16431,25.7691 -19.108203,-19.20397 C 77.455778,113.69043 65.837595,102.01978 62.147104,98.317837 L 55.43711,91.587035 Z"
       id="path7607" />
    <path
       style="fill:#000000;fill-opacity:0.75;stroke:#4c8adc;stroke-width:1;stroke-linejoin:round;stroke-dasharray:none;stroke-opacity:0.285106"
       d="m 86.610123,212.15132 c 14.754767,-14.75584 26.950547,-26.78649 27.101647,-26.73476 0.24189,0.0828 49.26971,50.70643 51.09705,52.7602 l 0.7148,0.80338 H 112.6534 59.783277 Z"
       id="path7609" />
    <path
       style="fill:#000000;fill-opacity:0.75;stroke:#4c8adc;stroke-width:1;stroke-linejoin:round;stroke-dasharray:none;stroke-opacity:0.285106"
       d="m 189.057,222.89791 -1.12148,37.1813 -18.43482,-18.80587 c -10.1391,-10.3432 -26.64712,-27.3071 -36.68443,-37.69763 l -18.2497,-18.8918 37.80598,0.51639 37.80599,0.51636 z"
       id="path7611" />
  </g>
</svg>
