<?xml version="1.0" encoding="UTF-8" standalone="no"?>
<!-- Created with Inkscape (http://www.inkscape.org/) -->

<svg
   width="285.75mm"
   height="31.750002mm"
   viewBox="0 0 285.75 31.750002"
   version="1.1"
   id="svg5"
   inkscape:version="1.2.1 (9c6d41e, 2022-07-14)"
   sodipodi:docname="set03.svg"
   inkscape:export-filename="puzzle01a.pdf"
   inkscape:export-xdpi="96"
   inkscape:export-ydpi="96"
   xml:space="preserve"
   xmlns:inkscape="http://www.inkscape.org/namespaces/inkscape"
   xmlns:sodipodi="http://sodipodi.sourceforge.net/DTD/sodipodi-0.dtd"
   xmlns="http://www.w3.org/2000/svg"
   xmlns:svg="http://www.w3.org/2000/svg"><sodipodi:namedview
     id="namedview7"
     pagecolor="#ffffff"
     bordercolor="#666666"
     borderopacity="1.0"
     inkscape:pageshadow="2"
     inkscape:pageopacity="0.0"
     inkscape:pagecheckerboard="0"
     inkscape:document-units="mm"
     showgrid="true"
     inkscape:zoom="0.93677454"
     inkscape:cx="725.3613"
     inkscape:cy="193.21618"
     inkscape:window-width="1340"
     inkscape:window-height="890"
     inkscape:window-x="135"
     inkscape:window-y="38"
     inkscape:window-maximized="0"
     inkscape:current-layer="layer1"
     inkscape:showpageshadow="2"
     inkscape:deskcolor="#d1d1d1"><inkscape:grid
       type="xygrid"
       id="grid824"
       originx="-8.0112513e-07"
       originy="3.5375777e-09" /></sodipodi:namedview><defs
     id="defs2" /><g
     inkscape:label="Layer 1"
     inkscape:groupmode="layer"
     id="layer1"><g
       inkscape:label="Layer 1"
       id="layer1-0"
       transform="matrix(0.1617156,0,0,0.1617156,-5.3462896,-11.801194)"><rect
         style="font-variation-settings:normal;opacity:1;vector-effect:none;fill:none;fill-opacity:1;fill-rule:evenodd;stroke-width:0.491555;stroke-linecap:butt;stroke-linejoin:miter;stroke-miterlimit:4;stroke-dasharray:none;stroke-dashoffset:0;stroke-opacity:1;-inkscape-stroke:none;stop-color:#000000;stop-opacity:1"
         id="rect2762"
         width="52.156235"
         height="22.138258"
         x="55.177456"
         y="243.7709"
         ry="8.5252748e-07" /><path
         style="fill:#000000;fill-opacity:0.75;stroke:#4c8adc;stroke-width:1;stroke-linejoin:round;stroke-dasharray:none;stroke-opacity:0.285106"
         d="m 112.49573,126.45777 4.43779,-17.62764 22.37953,-13.382511 22.37941,-13.38244 -4.46747,17.7577 -4.46744,17.757751 -22.34978,13.2524 -22.34975,13.25237 z"
         id="path7599" /><path
         style="fill:#000000;fill-opacity:0.75;stroke:#4c8adc;stroke-width:1;stroke-linejoin:round;stroke-dasharray:none;stroke-opacity:0.285106"
         d="m 77.274959,194.12653 24.939481,0.33618 -4.882285,5.07553 c -2.685258,2.79155 -8.285467,8.41802 -12.444907,12.50327 L 77.32463,219.46926 64.830083,206.62983 52.335539,193.7904 Z"
         id="path7601" /><path
         style="fill:#000000;fill-opacity:0.75;stroke:#4c8adc;stroke-width:1;stroke-linejoin:round;stroke-dasharray:none;stroke-opacity:0.285106"
         d="m 89.891741,180.91278 -13.037736,-13.04173 13.13355,-13.12952 13.133545,-13.12957 13.03774,13.03776 13.0378,13.03772 -13.13361,13.13354 -13.13355,13.13353 z"
         id="path7603" /><path
         style="fill:#000000;fill-opacity:0.75;stroke:#4c8adc;stroke-width:1;stroke-linejoin:round;stroke-dasharray:none;stroke-opacity:0.285106"
         d="m 192.45446,157.59032 c 0.0885,0.0888 5.61569,5.94123 12.28272,13.0055 l 12.12185,12.84412 -12.81134,12.04309 c -11.50062,10.81097 -12.83273,11.95214 -13.02033,11.15398 -0.23289,-0.9909 1.17277,-49.30179 1.4271,-49.04669 z"
         id="path7605" /><path
         style="fill:#000000;fill-opacity:0.75;stroke:#4c8adc;stroke-width:1;stroke-linejoin:round;stroke-dasharray:none;stroke-opacity:0.285106"
         d="m 81.419622,91.752708 25.982488,0.165664 -0.1643,25.769108 -0.16431,25.7691 -19.108203,-19.20397 C 77.455778,113.69043 65.837595,102.01978 62.147104,98.317837 L 55.43711,91.587035 Z"
         id="path7607" /><path
         style="fill:#000000;fill-opacity:0.75;stroke:#4c8adc;stroke-width:1;stroke-linejoin:round;stroke-dasharray:none;stroke-opacity:0.285106"
         d="m 86.610123,212.15132 c 14.754767,-14.75584 26.950547,-26.78649 27.101647,-26.73476 0.24189,0.0828 49.26971,50.70643 51.09705,52.7602 l 0.7148,0.80338 H 112.6534 59.783277 Z"
         id="path7609" /><path
         style="fill:#000000;fill-opacity:0.75;stroke:#4c8adc;stroke-width:1;stroke-linejoin:round;stroke-dasharray:none;stroke-opacity:0.285106"
         d="m 189.057,222.89791 -1.12148,37.1813 -18.43482,-18.80587 c -10.1391,-10.3432 -26.64712,-27.3071 -36.68443,-37.69763 l -18.2497,-18.8918 37.80598,0.51639 37.80599,0.51636 z"
         id="path7611" /></g><g
       inkscape:label="Layer 1"
       id="layer1-4"
       transform="matrix(0.12352409,0,0,0.12352409,31.783557,-10.213834)"><rect
         style="font-variation-settings:normal;opacity:1;vector-effect:none;fill:none;fill-opacity:1;fill-rule:evenodd;stroke-width:0.491555;stroke-linecap:butt;stroke-linejoin:miter;stroke-miterlimit:4;stroke-dasharray:none;stroke-dashoffset:0;stroke-opacity:1;-inkscape-stroke:none;stop-color:#000000;stop-opacity:1"
         id="rect2762-2"
         width="52.156235"
         height="22.138258"
         x="55.177456"
         y="243.7709"
         ry="8.5252748e-07" /><path
         style="fill:#000000;fill-opacity:0.75;stroke:#4c8adc;stroke-width:1;stroke-linejoin:round;stroke-dasharray:none;stroke-opacity:0.285106"
         d="m 209.72963,180.37559 -12.78888,-12.91791 -26.07521,-0.13509 -26.07507,-0.13509 12.88059,13.01478 12.88061,13.01483 25.98339,0.0382 25.98337,0.0382 z"
         id="path7599-1" /><path
         style="fill:#000000;fill-opacity:0.75;stroke:#4c8adc;stroke-width:1;stroke-linejoin:round;stroke-dasharray:none;stroke-opacity:0.285106"
         d="m 62.011582,279.46486 -0.418895,24.93823 -5.059309,-4.8991 c -2.782628,-2.6945 -8.390493,-8.31334 -12.461925,-12.4863 l -7.402626,-7.58722 12.8808,-12.45189 12.880801,-12.45189 z"
         id="path7601-9" /><path
         style="fill:#000000;fill-opacity:0.75;stroke:#4c8adc;stroke-width:1;stroke-linejoin:round;stroke-dasharray:none;stroke-opacity:0.285106"
         d="m 114.28135,135.13536 -13.03774,-13.04173 13.13355,-13.12952 13.13355,-13.129567 13.03774,13.037757 13.0378,13.03772 -13.13361,13.13354 -13.13355,13.13353 z"
         id="path7603-2" /><path
         style="fill:#000000;fill-opacity:0.75;stroke:#4c8adc;stroke-width:1;stroke-linejoin:round;stroke-dasharray:none;stroke-opacity:0.285106"
         d="m 136.70064,326.95164 c -0.12532,0.004 -8.17517,0.0279 -17.8887,0.0536 l -17.66093,0.0468 -0.0118,-17.58313 c -0.0106,-15.7842 0.0691,-17.53647 0.77945,-17.12695 0.88184,0.50841 35.14204,34.59883 34.78198,34.60966 z"
         id="path7605-4" /><path
         style="fill:#000000;fill-opacity:0.75;stroke:#4c8adc;stroke-width:1;stroke-linejoin:round;stroke-dasharray:none;stroke-opacity:0.285106"
         d="m 93.001002,280.8983 -18.418988,-18.32644 18.175928,-18.26772 18.175938,-18.26771 0.17324,27.09034 c 0.0953,14.89968 0.20465,31.36705 0.24305,36.59416 l 0.0699,9.50383 z"
         id="path7607-5" /><path
         style="fill:#000000;fill-opacity:0.75;stroke:#4c8adc;stroke-width:1;stroke-linejoin:round;stroke-dasharray:none;stroke-opacity:0.285106"
         d="m 89.987146,166.74913 c 14.754764,-14.75584 26.950544,-26.78649 27.101644,-26.73476 0.24189,0.0828 49.26971,50.70643 51.09705,52.7602 l 0.7148,0.80338 H 116.03042 63.1603 Z"
         id="path7609-8" /><path
         style="fill:#000000;fill-opacity:0.75;stroke:#4c8adc;stroke-width:1;stroke-linejoin:round;stroke-dasharray:none;stroke-opacity:0.285106"
         d="m 100.39357,195.4538 37.1982,0.0168 -18.25013,18.98516 c -10.03754,10.44178 -26.503737,27.44628 -36.591617,37.78772 l -18.34152,18.80267 -0.60653,-37.80465 -0.60656,-37.80465 z"
         id="path7611-6" /></g><g
       inkscape:label="Layer 1"
       id="layer1-5"
       transform="matrix(0.14890382,0,0,0.14890382,57.034969,-20.07059)"><rect
         style="font-variation-settings:normal;opacity:1;vector-effect:none;fill:none;fill-opacity:1;fill-rule:evenodd;stroke-width:0.491555;stroke-linecap:butt;stroke-linejoin:miter;stroke-miterlimit:4;stroke-dasharray:none;stroke-dashoffset:0;stroke-opacity:1;-inkscape-stroke:none;stop-color:#000000;stop-opacity:1"
         id="rect2762-0"
         width="52.156235"
         height="22.138258"
         x="55.177456"
         y="243.7709"
         ry="8.5252748e-07" /><path
         style="fill:#000000;fill-opacity:0.75;stroke:#4c8adc;stroke-width:1;stroke-linejoin:round;stroke-dasharray:none;stroke-opacity:0.285106"
         d="m 68.657277,246.08911 12.754082,-12.95227 -0.196814,-26.07481 -0.196813,-26.07468 -12.849777,13.0452 -12.849828,13.04523 0.292528,25.98177 0.292528,25.98175 z"
         id="path7599-2" /><path
         style="fill:#000000;fill-opacity:0.75;stroke:#4c8adc;stroke-width:1;stroke-linejoin:round;stroke-dasharray:none;stroke-opacity:0.285106"
         d="m 100.76355,198.59885 -17.754832,17.51732 -0.184132,-7.04016 c -0.101283,-3.8721 -0.173397,-11.81024 -0.160272,-17.64034 l 0.02387,-10.6002 17.915056,0.12303 17.91507,0.12303 z"
         id="path7601-1" /><path
         style="fill:#000000;fill-opacity:0.75;stroke:#4c8adc;stroke-width:1;stroke-linejoin:round;stroke-dasharray:none;stroke-opacity:0.285106"
         d="m 69.254382,273.96851 -13.03774,-13.04173 13.13355,-13.12952 13.13355,-13.12957 13.03774,13.03776 13.037798,13.03772 -13.133608,13.13354 -13.13355,13.13353 z"
         id="path7603-8" /><path
         style="fill:#000000;fill-opacity:0.75;stroke:#4c8adc;stroke-width:1;stroke-linejoin:round;stroke-dasharray:none;stroke-opacity:0.285106"
         d="m 137.92865,290.03306 c 0.005,0.12529 0.0937,8.17469 0.19761,17.88769 l 0.18898,17.65998 -17.58247,0.15335 c -15.7836,0.13767 -17.53646,0.0721 -17.13267,-0.64154 0.5013,-0.88591 34.31481,-35.41944 34.32853,-35.05948 z"
         id="path7605-7" /><path
         style="fill:#000000;fill-opacity:0.75;stroke:#4c8adc;stroke-width:1;stroke-linejoin:round;stroke-dasharray:none;stroke-opacity:0.285106"
         d="m 120.13556,181.23416 18.29881,-18.44644 18.29494,18.14852 18.29494,18.14854 -27.09005,0.21385 c -14.89952,0.11763 -31.36671,0.25166 -36.59376,0.2979 l -9.50371,0.0841 z"
         id="path7607-1" /><path
         style="fill:#000000;fill-opacity:0.75;stroke:#4c8adc;stroke-width:1;stroke-linejoin:round;stroke-dasharray:none;stroke-opacity:0.285106"
         d="m 110.24928,261.30576 c 14.75477,-14.75584 26.95055,-26.78649 27.10165,-26.73476 0.24189,0.0828 49.26971,50.70643 51.09705,52.7602 l 0.7148,0.80338 H 136.29256 83.422436 Z"
         id="path7609-5" /><path
         style="fill:#000000;fill-opacity:0.75;stroke:#4c8adc;stroke-width:1;stroke-linejoin:round;stroke-dasharray:none;stroke-opacity:0.285106"
         d="m 164.80945,260.66136 -25.87198,-26.72728 26.33426,-0.10349 c 14.48377,-0.0569 38.15418,-0.0634 52.60092,-0.0143 l 26.26678,0.0891 -26.72908,26.74164 -26.72906,26.74167 z"
         id="path7611-5" /></g><g
       inkscape:label="Layer 1"
       id="layer1-53"
       transform="matrix(0.13293241,0,0,0.13293241,92.837209,-11.633543)"><rect
         style="font-variation-settings:normal;opacity:1;vector-effect:none;fill:none;fill-opacity:1;fill-rule:evenodd;stroke-width:0.491555;stroke-linecap:butt;stroke-linejoin:miter;stroke-miterlimit:4;stroke-dasharray:none;stroke-dashoffset:0;stroke-opacity:1;-inkscape-stroke:none;stop-color:#000000;stop-opacity:1"
         id="rect2762-9"
         width="52.156235"
         height="22.138258"
         x="55.177456"
         y="243.7709"
         ry="8.5252748e-07" /><path
         style="fill:#000000;fill-opacity:0.75;stroke:#4c8adc;stroke-width:1;stroke-linejoin:round;stroke-dasharray:none;stroke-opacity:0.285106"
         d="m 178.11971,227.56364 12.78618,-12.92058 26.07518,-0.14054 26.07504,-0.14054 -12.87787,13.01747 -12.87789,13.01752 -25.98338,0.0436 -25.98336,0.0436 z"
         id="path7599-0" /><path
         style="fill:#000000;fill-opacity:0.75;stroke:#4c8adc;stroke-width:1;stroke-linejoin:round;stroke-dasharray:none;stroke-opacity:0.285106"
         d="m 163.5924,214.24721 24.94151,0.10668 -4.83538,5.12024 c -2.65946,2.81615 -8.20765,8.4939 -12.32932,12.61726 l -7.49395,7.49703 -12.61216,-12.72391 -12.61216,-12.72392 z"
         id="path7601-5" /><path
         style="fill:#000000;fill-opacity:0.75;stroke:#4c8adc;stroke-width:1;stroke-linejoin:round;stroke-dasharray:none;stroke-opacity:0.285106"
         d="m 151.61973,194.29323 -0.0228,-18.44096 18.57078,-0.023 18.57082,-0.023 0.0256,18.43814 0.0257,18.43816 -18.57366,0.0258 -18.57362,0.0258 z"
         id="path7603-5" /><path
         style="fill:#000000;fill-opacity:0.75;stroke:#4c8adc;stroke-width:1;stroke-linejoin:round;stroke-dasharray:none;stroke-opacity:0.285106"
         d="m 216.14323,242.34235 c -0.0863,0.0909 -5.7956,5.76588 -12.687,12.61145 l -12.52975,12.44653 -12.36694,-12.49902 c -11.10169,-11.22023 -12.27662,-12.52267 -11.48348,-12.73066 0.98462,-0.25817 49.31567,-0.0891 49.06715,0.17169 z"
         id="path7605-6" /><path
         style="fill:#000000;fill-opacity:0.75;stroke:#4c8adc;stroke-width:1;stroke-linejoin:round;stroke-dasharray:none;stroke-opacity:0.285106"
         d="m 151.27921,156.46933 18.29881,-18.44644 18.29494,18.14852 18.29494,18.14854 -27.09005,0.21385 c -14.89952,0.11763 -31.36671,0.25166 -36.59376,0.2979 l -9.50371,0.0841 z"
         id="path7607-3" /><path
         style="fill:#000000;fill-opacity:0.75;stroke:#4c8adc;stroke-width:1;stroke-linejoin:round;stroke-dasharray:none;stroke-opacity:0.285106"
         d="m 110.24928,241.79407 c 14.75477,-14.75584 26.95055,-26.78649 27.10165,-26.73476 0.24189,0.0828 49.26971,50.70643 51.09705,52.7602 l 0.7148,0.80338 H 136.29256 83.422436 Z"
         id="path7609-2" /><path
         style="fill:#000000;fill-opacity:0.75;stroke:#4c8adc;stroke-width:1;stroke-linejoin:round;stroke-dasharray:none;stroke-opacity:0.285106"
         d="m 56.369503,240.39923 -25.87198,-26.72728 26.33426,-0.10349 c 14.48377,-0.0569 38.15418,-0.0634 52.600917,-0.0143 l 26.26678,0.0891 -26.72908,26.74164 -26.729057,26.74167 z"
         id="path7611-68" /></g><g
       inkscape:label="Layer 1"
       id="layer1-7"
       transform="matrix(0.1555263,0,0,0.1555263,130.16876,-19.725655)"><rect
         style="font-variation-settings:normal;opacity:1;vector-effect:none;fill:none;fill-opacity:1;fill-rule:evenodd;stroke-width:0.491555;stroke-linecap:butt;stroke-linejoin:miter;stroke-miterlimit:4;stroke-dasharray:none;stroke-dashoffset:0;stroke-opacity:1;-inkscape-stroke:none;stop-color:#000000;stop-opacity:1"
         id="rect2762-8"
         width="52.156235"
         height="22.138258"
         x="55.177456"
         y="243.7709"
         ry="8.5252748e-07" /><path
         style="fill:#000000;fill-opacity:0.75;stroke:#4c8adc;stroke-width:1;stroke-linejoin:round;stroke-dasharray:none;stroke-opacity:0.285106"
         d="m 48.524484,223.07208 18.177395,-0.10135 18.338123,-18.53775 18.338018,-18.53765 -18.310768,0.0991 -18.310815,0.0991 -18.204633,18.53995 -18.20461,18.53993 z"
         id="path7599-4" /><path
         style="fill:#000000;fill-opacity:0.75;stroke:#4c8adc;stroke-width:1;stroke-linejoin:round;stroke-dasharray:none;stroke-opacity:0.285106"
         d="m 2.3864208,169.16253 -0.0566,-24.94167 5.15179,4.80174 c 2.8335002,2.64097 8.5474602,8.15186 12.6977202,12.24644 l 7.54594,7.4447 -12.64106,12.69521 -12.6410602,12.6952 z"
         id="path7601-0" /><path
         style="fill:#000000;fill-opacity:0.75;stroke:#4c8adc;stroke-width:1;stroke-linejoin:round;stroke-dasharray:none;stroke-opacity:0.285106"
         d="M 16.043601,208.97261 2.9364508,196.00064 15.999721,182.80119 l 13.06329,-13.19948 13.10712,12.968 13.10721,12.96795 -13.06331,13.20346 -13.06328,13.20344 z"
         id="path7603-0" /><path
         style="fill:#000000;fill-opacity:0.75;stroke:#4c8adc;stroke-width:1;stroke-linejoin:round;stroke-dasharray:none;stroke-opacity:0.285106"
         d="m 55.882041,193.69875 c -0.0916,-0.0855 -5.81473,-5.74658 -12.71839,-12.57979 l -12.55215,-12.42394 12.39389,-12.4723 c 11.12585,-11.19627 12.41829,-12.38219 12.63299,-11.59084 0.2665,0.9824 0.50656,49.31315 0.24367,49.06685 z"
         id="path7605-62" /><path
         style="fill:#000000;fill-opacity:0.75;stroke:#4c8adc;stroke-width:1;stroke-linejoin:round;stroke-dasharray:none;stroke-opacity:0.285106"
         d="m 86.968131,242.29866 -18.767187,-17.96971 17.822108,-18.61306 17.822138,-18.61305 0.69297,27.08203 c 0.38117,14.89511 0.80642,31.35735 0.94502,36.58276 l 0.25254,9.50073 z"
         id="path7607-4" /><path
         style="fill:#000000;fill-opacity:0.75;stroke:#4c8adc;stroke-width:1;stroke-linejoin:round;stroke-dasharray:none;stroke-opacity:0.285106"
         d="m 161.94483,278.12665 c 0.40612,20.8632 0.62215,37.99291 0.48012,38.06595 -0.22736,0.11693 -70.700193,0.35755 -73.447153,0.25078 l -1.07452,-0.0418 36.651603,-38.10406 36.65154,-38.10401 z"
         id="path7609-7" /><path
         style="fill:#000000;fill-opacity:0.75;stroke:#4c8adc;stroke-width:1;stroke-linejoin:round;stroke-dasharray:none;stroke-opacity:0.285106"
         d="m 134.57225,265.53909 -25.996,26.60667 -0.83723,-26.32116 c -0.46045,-14.47656 -1.1265,-38.13759 -1.47996,-52.5801 l -0.64288,-26.25906 27.47603,25.97358 27.47607,25.97355 z"
         id="path7611-4" /></g><g
       inkscape:label="Layer 1"
       id="layer1-8"
       transform="matrix(0.12471651,0,0,0.12471651,167.57122,-11.905601)"><rect
         style="font-variation-settings:normal;opacity:1;vector-effect:none;fill:none;fill-opacity:1;fill-rule:evenodd;stroke-width:0.491555;stroke-linecap:butt;stroke-linejoin:miter;stroke-miterlimit:4;stroke-dasharray:none;stroke-dashoffset:0;stroke-opacity:1;-inkscape-stroke:none;stop-color:#000000;stop-opacity:1"
         id="rect2762-99"
         width="52.156235"
         height="22.138258"
         x="55.177456"
         y="243.7709"
         ry="8.5252748e-07" /><path
         style="fill:#000000;fill-opacity:0.75;stroke:#4c8adc;stroke-width:1;stroke-linejoin:round;stroke-dasharray:none;stroke-opacity:0.285106"
         d="m 57.95672,209.79223 -0.0497,-18.17761 -18.48556,-18.39074 -18.485463,-18.39061 0.04706,18.31096 0.04706,18.31103 18.488138,18.25725 18.48812,18.25722 z"
         id="path7599-9" /><path
         style="fill:#000000;fill-opacity:0.75;stroke:#4c8adc;stroke-width:1;stroke-linejoin:round;stroke-dasharray:none;stroke-opacity:0.285106"
         d="m 32.404399,229.94894 -0.0566,-24.94167 5.15179,4.80174 c 2.833501,2.64097 8.547461,8.15186 12.697721,12.24644 l 7.54594,7.4447 -12.64106,12.69521 -12.641061,12.6952 z"
         id="path7601-3" /><path
         style="fill:#000000;fill-opacity:0.75;stroke:#4c8adc;stroke-width:1;stroke-linejoin:round;stroke-dasharray:none;stroke-opacity:0.285106"
         d="m 30.069454,154.83737 -18.221426,-2.83708 2.857024,-18.34971 2.857023,-18.34975 18.219077,2.83388 18.21912,2.83379 -2.85471,18.35299 -2.85469,18.35295 z"
         id="path7603-3" /><path
         style="fill:#000000;fill-opacity:0.75;stroke:#4c8adc;stroke-width:1;stroke-linejoin:round;stroke-dasharray:none;stroke-opacity:0.285106"
         d="m 33.1981,256.10379 c 0.08628,-0.0909 5.795784,-5.76569 12.68741,-12.61103 l 12.530154,-12.44613 12.366532,12.49943 c 11.101325,11.22058 12.276219,12.52306 11.483073,12.73102 -0.984629,0.25815 -49.315674,0.0875 -49.067149,-0.17328 z"
         id="path7605-77" /><path
         style="fill:#000000;fill-opacity:0.75;stroke:#4c8adc;stroke-width:1;stroke-linejoin:round;stroke-dasharray:none;stroke-opacity:0.285106"
         d="m 108.99436,310.36822 -25.982644,-0.14108 0.139902,-25.76924 0.139931,-25.76926 19.126401,19.18586 c 10.51954,10.55219 22.14875,22.21186 25.84269,25.91035 l 6.71665,6.72416 z"
         id="path7607-32" /><path
         style="fill:#000000;fill-opacity:0.75;stroke:#4c8adc;stroke-width:1;stroke-linejoin:round;stroke-dasharray:none;stroke-opacity:0.285106"
         d="m 42.541318,334.22484 c -20.86714,0.0236 -37.9979312,-0.0745 -38.0683559,-0.21783 -0.1127413,-0.22947 0.9386737,-70.69487 1.0957873,-73.4394 l 0.061497,-1.07358 37.4257136,37.34401 37.425668,37.34394 z"
         id="path7609-56" /><path
         style="fill:#000000;fill-opacity:0.75;stroke:#4c8adc;stroke-width:1;stroke-linejoin:round;stroke-dasharray:none;stroke-opacity:0.285106"
         d="m 81.538847,295.11992 -0.47029,37.19523 -18.761265,-18.48024 C 51.988671,303.67083 35.186181,286.99856 24.968512,276.78531 L 6.3907976,258.21598 44.200029,258.07042 82.009266,257.92476 Z"
         id="path7611-3" /></g><g
       inkscape:label="Layer 1"
       id="layer1-71"
       transform="matrix(0.15202355,0,0,0.15202355,198.93113,-13.400704)"><rect
         style="font-variation-settings:normal;opacity:1;vector-effect:none;fill:none;fill-opacity:1;fill-rule:evenodd;stroke-width:0.491555;stroke-linecap:butt;stroke-linejoin:miter;stroke-miterlimit:4;stroke-dasharray:none;stroke-dashoffset:0;stroke-opacity:1;-inkscape-stroke:none;stop-color:#000000;stop-opacity:1"
         id="rect2762-89"
         width="52.156235"
         height="22.138258"
         x="55.177456"
         y="243.7709"
         ry="8.5252748e-07" /><path
         style="fill:#000000;fill-opacity:0.75;stroke:#4c8adc;stroke-width:1;stroke-linejoin:round;stroke-dasharray:none;stroke-opacity:0.285106"
         d="M 52.05771,271.79916 39.251218,258.8987 13.17584,258.7992 l -26.075218,-0.0995 12.89829994,12.9972 12.89835306,12.99725 25.983426,0.003 25.983392,0.003 z"
         id="path7599-3" /><path
         style="fill:#000000;fill-opacity:0.75;stroke:#4c8adc;stroke-width:1;stroke-linejoin:round;stroke-dasharray:none;stroke-opacity:0.285106"
         d="m 58.38419,257.15118 -24.94013,-0.28297 4.871436,-5.08594 c 2.6793,-2.79729 8.267475,-8.43569 12.418182,-12.52981 l 7.546749,-7.44389 12.521925,12.81273 12.521914,12.81273 z"
         id="path7601-7" /><path
         style="fill:#000000;fill-opacity:0.75;stroke:#4c8adc;stroke-width:1;stroke-linejoin:round;stroke-dasharray:none;stroke-opacity:0.285106"
         d="m 72.743269,244.21931 -13.081448,-12.9979 13.089374,-13.17356 13.089403,-13.17359 13.081415,12.99392 13.081507,12.99387 -13.089427,13.17757 -13.089387,13.17756 z"
         id="path7603-4" /><path
         style="fill:#000000;fill-opacity:0.75;stroke:#4c8adc;stroke-width:1;stroke-linejoin:round;stroke-dasharray:none;stroke-opacity:0.285106"
         d="m 91.360801,258.85766 c -0.08533,0.0918 -5.735141,5.82601 -12.554766,12.74309 L 66.40679,284.1773 53.910153,271.80794 C 42.692035,260.70413 41.503577,259.41402 42.294504,259.19777 c 0.981874,-0.26844 49.31206,-0.60346 49.066277,-0.34012 z"
         id="path7605-8" /><path
         style="fill:#000000;fill-opacity:0.75;stroke:#4c8adc;stroke-width:1;stroke-linejoin:round;stroke-dasharray:none;stroke-opacity:0.285106"
         d="M 10.571858,206.48444 -7.7989522,188.1097 10.424858,169.88976 l 18.22385,-18.21992 0.10215,27.09069 c 0.0562,14.89988 0.12233,31.36749 0.14693,36.59467 l 0.0453,9.50398 z"
         id="path7607-0" /><path
         style="fill:#000000;fill-opacity:0.75;stroke:#4c8adc;stroke-width:1;stroke-linejoin:round;stroke-dasharray:none;stroke-opacity:0.285106"
         d="m 58.55069,177.03719 c -14.755751,-14.75487 -26.786237,-26.95081 -26.734519,-27.1019 0.0828,-0.24188 50.706881,-49.26922 52.760681,-51.096542 l 0.80341,-0.71477 -4.9e-4,52.870202 -4.8e-4,52.87014 z"
         id="path7609-4" /><path
         style="fill:#000000;fill-opacity:0.75;stroke:#4c8adc;stroke-width:1;stroke-linejoin:round;stroke-dasharray:none;stroke-opacity:0.285106"
         d="m 57.470385,230.63987 -26.782423,25.81487 -0.04729,-26.33442 c -0.02598,-14.48385 0.01805,-38.15422 0.098,-52.60084 l 0.145163,-26.26653 26.684496,26.78613 26.684587,26.78606 z"
         id="path7611-0" /></g><g
       inkscape:label="Layer 1"
       id="layer1-56"
       transform="matrix(0.14390164,0,0,0.14390164,232.60348,-9.8832468)"><rect
         style="font-variation-settings:normal;opacity:1;vector-effect:none;fill:none;fill-opacity:1;fill-rule:evenodd;stroke-width:0.491555;stroke-linecap:butt;stroke-linejoin:miter;stroke-miterlimit:4;stroke-dasharray:none;stroke-dashoffset:0;stroke-opacity:1;-inkscape-stroke:none;stop-color:#000000;stop-opacity:1"
         id="rect2762-7"
         width="52.156235"
         height="22.138258"
         x="55.177456"
         y="243.7709"
         ry="8.5252748e-07" /><path
         style="fill:#000000;fill-opacity:0.75;stroke:#4c8adc;stroke-width:1;stroke-linejoin:round;stroke-dasharray:none;stroke-opacity:0.285106"
         d="m 119.99633,221.60431 12.93391,-12.77271 0.16771,-26.07502 0.1677,-26.07487 -13.03089,12.86426 -13.03095,12.86431 -0.071,25.98333 -0.071,25.98329 z"
         id="path7599-8" /><path
         style="fill:#000000;fill-opacity:0.75;stroke:#4c8adc;stroke-width:1;stroke-linejoin:round;stroke-dasharray:none;stroke-opacity:0.285106"
         d="m 107.39337,154.80329 -0.18658,-24.94104 5.17674,4.77482 c 2.84724,2.62617 8.58983,8.10722 12.76137,12.18011 l 7.58463,7.40528 -12.57473,12.76091 -12.57473,12.76089 z"
         id="path7601-06" /><path
         style="fill:#000000;fill-opacity:0.75;stroke:#4c8adc;stroke-width:1;stroke-linejoin:round;stroke-dasharray:none;stroke-opacity:0.285106"
         d="m 84.775403,137.06105 -17.707697,-5.14852 5.184729,-17.83236 5.184733,-17.832388 17.705764,5.145028 17.705818,5.14496 -5.18286,17.8359 -5.18281,17.83587 z"
         id="path7603-57" /><path
         style="fill:#000000;fill-opacity:0.75;stroke:#4c8adc;stroke-width:1;stroke-linejoin:round;stroke-dasharray:none;stroke-opacity:0.285106"
         d="m -8.4489782,239.94247 c -0.0853,0.0918 -5.7351398,5.82601 -12.5547698,12.74309 l -12.39924,12.57655 -12.496637,-12.36936 c -11.218118,-11.10381 -12.406576,-12.39392 -11.615649,-12.61017 0.981874,-0.26844 49.3120558,-0.60346 49.0662758,-0.34012 z"
         id="path7605-3" /><path
         style="fill:#000000;fill-opacity:0.75;stroke:#4c8adc;stroke-width:1;stroke-linejoin:round;stroke-dasharray:none;stroke-opacity:0.285106"
         d="M 27.135566,212.99697 26.72767,238.97679 0.96122292,238.57226 -24.805239,238.1677 -5.4239794,219.23935 C 5.2357013,208.82873 17.014173,197.31986 20.750406,193.6641 l 6.792764,-6.64726 z"
         id="path7607-43" /><path
         style="fill:#000000;fill-opacity:0.75;stroke:#4c8adc;stroke-width:1;stroke-linejoin:round;stroke-dasharray:none;stroke-opacity:0.285106"
         d="M 78.437601,233.69612 C 63.68185,218.94125 51.651364,206.74531 51.703082,206.59422 c 0.0828,-0.24188 50.706878,-49.26922 52.760678,-51.09654 l 0.80341,-0.71477 -4.9e-4,52.8702 -4.8e-4,52.87014 z"
         id="path7609-0" /><path
         style="fill:#000000;fill-opacity:0.75;stroke:#4c8adc;stroke-width:1;stroke-linejoin:round;stroke-dasharray:none;stroke-opacity:0.285106"
         d="m 28.619773,223.73101 0.732902,-37.19097 18.630332,18.61221 c 10.246621,10.23667 26.931022,27.02713 37.076306,37.3123 l 18.446127,18.70005 -37.809322,-0.12138 -37.80934,-0.12124 z"
         id="path7611-48" /></g><g
       inkscape:label="Layer 1"
       id="layer1-3"
       transform="matrix(0.14808028,0,0,0.14808028,264.2888,-9.1836409)"><rect
         style="font-variation-settings:normal;opacity:1;vector-effect:none;fill:none;fill-opacity:1;fill-rule:evenodd;stroke-width:0.491555;stroke-linecap:butt;stroke-linejoin:miter;stroke-miterlimit:4;stroke-dasharray:none;stroke-dashoffset:0;stroke-opacity:1;-inkscape-stroke:none;stop-color:#000000;stop-opacity:1"
         id="rect2762-3"
         width="52.156235"
         height="22.138258"
         x="55.177456"
         y="243.7709"
         ry="8.5252748e-07" /><path
         style="fill:#000000;fill-opacity:0.75;stroke:#4c8adc;stroke-width:1;stroke-linejoin:round;stroke-dasharray:none;stroke-opacity:0.285106"
         d="M 10.272876,146.39367 22.723841,133.14974 21.923709,107.08646 21.123574,81.023333 8.5790943,94.362348 -3.9654435,107.70141 l 0.8933716,25.96807 0.8933701,25.96802 z"
         id="path7599-38" /><path
         style="fill:#000000;fill-opacity:0.75;stroke:#4c8adc;stroke-width:1;stroke-linejoin:round;stroke-dasharray:none;stroke-opacity:0.285106"
         d="m 76.064797,171.08926 17.946549,17.32084 -7.033526,0.35636 c -3.868482,0.19606 -11.802472,0.4624 -17.631153,0.59193 l -10.597607,0.23554 -0.315423,-17.9127 -0.315423,-17.9127 z"
         id="path7601-58" /><path
         style="fill:#000000;fill-opacity:0.75;stroke:#4c8adc;stroke-width:1;stroke-linejoin:round;stroke-dasharray:none;stroke-opacity:0.285106"
         d="M 11.433101,174.04559 -2.0135414,161.42586 10.695003,147.88454 23.403561,134.34319 36.850058,146.95893 50.29664,159.57464 37.588156,173.11997 24.879731,186.66529 Z"
         id="path7603-9" /><path
         style="fill:#000000;fill-opacity:0.75;stroke:#4c8adc;stroke-width:1;stroke-linejoin:round;stroke-dasharray:none;stroke-opacity:0.285106"
         d="m 20.282089,79.874467 c -0.08303,0.09386 -5.591226,5.964262 -12.2399877,13.045739 L -4.0464681,105.79565 -16.841301,93.735008 C -28.327106,82.908326 -29.5467,81.647609 -28.761287,81.412118 c 0.97503,-0.292327 49.282635,-1.806921 49.043356,-1.53766 z"
         id="path7605-60" /><path
         style="fill:#000000;fill-opacity:0.75;stroke:#4c8adc;stroke-width:1;stroke-linejoin:round;stroke-dasharray:none;stroke-opacity:0.285106"
         d="m 39.886785,210.43585 -18.911965,-17.81726 17.67092,-18.75666 17.670953,-18.75664 0.912065,27.07552 c 0.501661,14.89154 1.060117,31.34981 1.240987,36.57392 l 0.32943,9.49838 z"
         id="path7607-42" /><path
         style="fill:#000000;fill-opacity:0.75;stroke:#4c8adc;stroke-width:1;stroke-linejoin:round;stroke-dasharray:none;stroke-opacity:0.285106"
         d="m 51.098536,120.2853 c -0.07605,-20.867024 -0.02097,-37.998004 0.122178,-38.068794 0.229175,-0.11331 70.696996,0.76105 73.441916,0.91128 l 1.07374,0.0588 -37.249857,37.519424 -37.249803,37.51938 z"
         id="path7609-3" /><path
         style="fill:#000000;fill-opacity:0.75;stroke:#4c8adc;stroke-width:1;stroke-linejoin:round;stroke-dasharray:none;stroke-opacity:0.285106"
         d="m -13.501951,187.52847 37.197607,0.20905 -18.3479877,18.89061 c -10.091346,10.38977 -26.6451673,27.30899 -36.7864363,37.59812 l -18.43841,18.70766 -0.411118,-37.80729 -0.411259,-37.80729 z"
         id="path7611-37" /></g></g></svg>
