<?xml version="1.0" encoding="UTF-8" standalone="no"?>
<!-- Created with Inkscape (http://www.inkscape.org/) -->

<svg
   width="158.37888mm"
   height="226.97273mm"
   viewBox="0 0 158.37888 226.97273"
   version="1.1"
   id="svg1869"
   inkscape:version="1.2.1 (9c6d41e, 2022-07-14)"
   sodipodi:docname="cat.svg"
   xmlns:inkscape="http://www.inkscape.org/namespaces/inkscape"
   xmlns:sodipodi="http://sodipodi.sourceforge.net/DTD/sodipodi-0.dtd"
   xmlns="http://www.w3.org/2000/svg"
   xmlns:svg="http://www.w3.org/2000/svg">
  <sodipodi:namedview
     id="namedview1871"
     pagecolor="#ffffff"
     bordercolor="#666666"
     borderopacity="1.0"
     inkscape:showpageshadow="2"
     inkscape:pageopacity="0.0"
     inkscape:pagecheckerboard="0"
     inkscape:deskcolor="#d1d1d1"
     inkscape:document-units="mm"
     showgrid="true"
     inkscape:zoom="0.70513298"
     inkscape:cx="196.41685"
     inkscape:cy="438.9243"
     inkscape:window-width="1214"
     inkscape:window-height="899"
     inkscape:window-x="331"
     inkscape:window-y="38"
     inkscape:window-maximized="0"
     inkscape:current-layer="layer1">
    <inkscape:grid
       type="xygrid"
       id="grid1990"
       originx="0.52149819"
       originy="-38.936371" />
  </sodipodi:namedview>
  <defs
     id="defs1866" />
  <g
     inkscape:label="Layer 1"
     inkscape:groupmode="layer"
     id="layer1"
     transform="translate(0.5215032,-38.936432)">
    <rect
       style="font-variation-settings:normal;opacity:1;vector-effect:none;fill:none;fill-opacity:1;fill-rule:evenodd;stroke-width:0.491555;stroke-linecap:butt;stroke-linejoin:miter;stroke-miterlimit:4;stroke-dasharray:none;stroke-dashoffset:0;stroke-opacity:1;-inkscape-stroke:none;stop-color:#000000;stop-opacity:1"
       id="rect2762"
       width="52.156235"
       height="22.138258"
       x="55.177456"
       y="243.7709"
       ry="8.5252748e-07" />
    <path
       style="fill:#000000;fill-opacity:0.75;stroke:#4c8adc;stroke-width:1;stroke-linejoin:round;stroke-dasharray:none;stroke-opacity:0.285106"
       d="m 140.66828,193.0574 -16.6887,7.20526 -9.62325,24.23486 -9.62319,24.2347 16.8123,-7.25535 16.81236,-7.25538 9.49982,-24.18454 9.4998,-24.1845 z"
       id="path7599" />
    <path
       style="fill:#000000;fill-opacity:0.75;stroke:#4c8adc;stroke-width:1;stroke-linejoin:round;stroke-dasharray:none;stroke-opacity:0.285106"
       d="m 27.095336,64.377355 -0.19302,-24.940988 5.177976,4.773493 c 2.847911,2.62543 8.591925,8.104989 12.764508,12.176811 l 7.586551,7.403321 -12.571438,12.764153 -12.571438,12.764144 z"
       id="path7601" />
    <path
       style="fill:#000000;fill-opacity:0.75;stroke:#4c8adc;stroke-width:1;stroke-linejoin:round;stroke-dasharray:none;stroke-opacity:0.285106"
       d="m 40.473937,103.88526 -13.08144,-12.9979 13.08937,-13.17356 13.0894,-13.17359 13.08142,12.99392 13.08151,12.99387 -13.08943,13.17757 -13.08939,13.17756 z"
       id="path7603" />
    <path
       style="fill:#000000;fill-opacity:0.75;stroke:#4c8adc;stroke-width:1;stroke-linejoin:round;stroke-dasharray:none;stroke-opacity:0.285106"
       d="m 79.824175,89.112828 c -0.0909,-0.0863 -5.76387,-5.79759 -12.60705,-12.691373 l -12.44219,-12.53406 12.50332,-12.362608 c 11.22407,-11.097802 12.52691,-12.272287 12.73462,-11.479075 0.25785,0.98471 0.072,49.315706 -0.18869,49.067096 z"
       id="path7605" />
    <path
       style="fill:#000000;fill-opacity:0.75;stroke:#4c8adc;stroke-width:1;stroke-linejoin:round;stroke-dasharray:none;stroke-opacity:0.285106"
       d="m 48.633817,231.28003 18.506253,-18.23832 18.088539,18.35424 18.088521,18.35428 -27.090727,-0.0925 c -14.899899,-0.0508 -31.36756,-0.10303 -36.594781,-0.11599 l -9.50406,-0.023 z"
       id="path7607" />
    <path
       style="fill:#000000;fill-opacity:0.75;stroke:#4c8adc;stroke-width:1;stroke-linejoin:round;stroke-dasharray:none;stroke-opacity:0.285106"
       d="m 66.490542,172.91111 c 20.86716,0.002 37.997818,0.12041 38.068068,0.26382 0.11246,0.2296 -1.0241,70.69367 -1.18453,73.43802 l -0.0628,1.07351 -37.380558,-37.3892 -37.380521,-37.38914 z"
       id="path7609" />
    <path
       style="fill:#000000;fill-opacity:0.75;stroke:#4c8adc;stroke-width:1;stroke-linejoin:round;stroke-dasharray:none;stroke-opacity:0.285106"
       d="m 79.351135,144.90193 25.829175,26.76863 -26.334395,0.0614 c -14.483834,0.0337 -38.154225,0.002 -52.600885,-0.0699 L -0.02157351,171.53092 26.7503,144.83212 53.522104,118.13324 Z"
       id="path7611" />
  </g>
</svg>
