<?xml version="1.0" encoding="UTF-8" standalone="no"?>
<!-- Created with Inkscape (http://www.inkscape.org/) -->

<svg
   width="184.98851mm"
   height="153.52652mm"
   viewBox="0 0 184.98851 153.52652"
   version="1.1"
   id="svg1869"
   inkscape:version="1.2.1 (9c6d41e, 2022-07-14)"
   sodipodi:docname="person_with_cup.svg"
   xmlns:inkscape="http://www.inkscape.org/namespaces/inkscape"
   xmlns:sodipodi="http://sodipodi.sourceforge.net/DTD/sodipodi-0.dtd"
   xmlns="http://www.w3.org/2000/svg"
   xmlns:svg="http://www.w3.org/2000/svg">
  <sodipodi:namedview
     id="namedview1871"
     pagecolor="#ffffff"
     bordercolor="#666666"
     borderopacity="1.0"
     inkscape:showpageshadow="2"
     inkscape:pageopacity="0.0"
     inkscape:pagecheckerboard="0"
     inkscape:deskcolor="#d1d1d1"
     inkscape:document-units="mm"
     showgrid="true"
     inkscape:zoom="0.70513298"
     inkscape:cx="333.97956"
     inkscape:cy="316.96149"
     inkscape:window-width="1214"
     inkscape:window-height="899"
     inkscape:window-x="298"
     inkscape:window-y="38"
     inkscape:window-maximized="0"
     inkscape:current-layer="layer1">
    <inkscape:grid
       type="xygrid"
       id="grid1990"
       originx="-35.897913"
       originy="-45.278938" />
  </sodipodi:namedview>
  <defs
     id="defs1866" />
  <g
     inkscape:label="Layer 1"
     inkscape:groupmode="layer"
     id="layer1"
     transform="translate(-35.897908,-45.278997)">
    <rect
       style="font-variation-settings:normal;opacity:1;vector-effect:none;fill:none;fill-opacity:1;fill-rule:evenodd;stroke-width:0.491555;stroke-linecap:butt;stroke-linejoin:miter;stroke-miterlimit:4;stroke-dasharray:none;stroke-dashoffset:0;stroke-opacity:1;-inkscape-stroke:none;stop-color:#000000;stop-opacity:1"
       id="rect2762"
       width="52.156235"
       height="22.138258"
       x="55.177456"
       y="243.7709"
       ry="8.5252748e-07" />
    <path
       style="fill:#000000;fill-opacity:0.75;stroke:#4c8adc;stroke-width:1;stroke-linejoin:round;stroke-dasharray:none;stroke-opacity:0.285106"
       d="m 120.72377,185.50821 -12.90958,12.79731 -26.075336,-0.10968 -26.075175,-0.10968 13.00216,-12.89331 13.002201,-12.89336 25.98261,0.20544 25.98257,0.20544 z"
       id="path7599" />
    <path
       style="fill:#000000;fill-opacity:0.75;stroke:#4c8adc;stroke-width:1;stroke-linejoin:round;stroke-dasharray:none;stroke-opacity:0.285106"
       d="m 137.35585,73.149537 24.9415,0.106872 -4.8354,5.120196 c -2.65949,2.816142 -8.20771,8.493867 -12.32941,12.617188 l -7.49399,7.496992 -12.61208,-12.724001 -12.61207,-12.72399 z"
       id="path7601" />
    <path
       style="fill:#000000;fill-opacity:0.75;stroke:#4c8adc;stroke-width:1;stroke-linejoin:round;stroke-dasharray:none;stroke-opacity:0.285106"
       d="m 49.479327,85.124025 -13.08144,-12.997894 13.08937,-13.17356 13.0894,-13.173595 13.08142,12.993925 13.08151,12.99387 -13.08943,13.177564 -13.08939,13.17756 z"
       id="path7603" />
    <path
       style="fill:#000000;fill-opacity:0.75;stroke:#4c8adc;stroke-width:1;stroke-linejoin:round;stroke-dasharray:none;stroke-opacity:0.285106"
       d="m 220.38648,173.36633 c -0.0867,0.0904 -5.82385,5.73734 -12.74881,12.54896 l -12.59076,12.38481 -12.30538,-12.55965 c -11.04642,-11.27464 -12.21495,-12.58283 -11.4208,-12.78692 0.98589,-0.25333 49.31553,0.15324 49.06573,0.4128 z"
       id="path7605" />
    <path
       style="fill:#000000;fill-opacity:0.75;stroke:#4c8adc;stroke-width:1;stroke-linejoin:round;stroke-dasharray:none;stroke-opacity:0.285106"
       d="m 118.38915,117.6688 -18.502469,18.24216 -18.092355,-18.35049 -18.09233,-18.350513 27.090747,0.08687 c 14.899907,0.04769 31.367587,0.09651 36.594797,0.108392 l 9.50407,0.02102 z"
       id="path7607" />
    <path
       style="fill:#000000;fill-opacity:0.75;stroke:#4c8adc;stroke-width:1;stroke-linejoin:round;stroke-dasharray:none;stroke-opacity:0.285106"
       d="m 110.7242,144.34306 c 14.83345,-14.67676 27.09296,-26.64246 27.24373,-26.58997 0.24144,0.084 48.99871,50.96833 50.81508,53.03182 l 0.71052,0.80715 -52.86943,-0.2818 -52.869388,-0.28178 z"
       id="path7609" />
    <path
       style="fill:#000000;fill-opacity:0.75;stroke:#4c8adc;stroke-width:1;stroke-linejoin:round;stroke-dasharray:none;stroke-opacity:0.285106"
       d="M 80.968,171.31568 54.240133,197.18703 54.13721,170.85277 c -0.05653,-14.48376 -0.06215,-38.15418 -0.01303,-52.60091 l 0.08973,-26.266791 26.740978,26.729741 26.741052,26.72967 z"
       id="path7611" />
  </g>
</svg>
