<?xml version="1.0" encoding="UTF-8" standalone="no"?>
<!-- Created with Inkscape (http://www.inkscape.org/) -->

<svg
   width="285.75mm"
   height="31.750002mm"
   viewBox="0 0 285.75 31.750002"
   version="1.1"
   id="svg5"
   inkscape:version="1.2.1 (9c6d41e, 2022-07-14)"
   sodipodi:docname="set04.svg"
   inkscape:export-filename="puzzle01a.pdf"
   inkscape:export-xdpi="96"
   inkscape:export-ydpi="96"
   xml:space="preserve"
   xmlns:inkscape="http://www.inkscape.org/namespaces/inkscape"
   xmlns:sodipodi="http://sodipodi.sourceforge.net/DTD/sodipodi-0.dtd"
   xmlns="http://www.w3.org/2000/svg"
   xmlns:svg="http://www.w3.org/2000/svg"><sodipodi:namedview
     id="namedview7"
     pagecolor="#ffffff"
     bordercolor="#666666"
     borderopacity="1.0"
     inkscape:pageshadow="2"
     inkscape:pageopacity="0.0"
     inkscape:pagecheckerboard="0"
     inkscape:document-units="mm"
     showgrid="true"
     inkscape:zoom="0.93677454"
     inkscape:cx="704.01145"
     inkscape:cy="132.3691"
     inkscape:window-width="1340"
     inkscape:window-height="890"
     inkscape:window-x="2103"
     inkscape:window-y="102"
     inkscape:window-maximized="0"
     inkscape:current-layer="layer1"
     inkscape:showpageshadow="2"
     inkscape:deskcolor="#d1d1d1"><inkscape:grid
       type="xygrid"
       id="grid824"
       originx="-8.0112513e-07"
       originy="3.5375777e-09" /></sodipodi:namedview><defs
     id="defs2" /><g
     inkscape:label="Layer 1"
     inkscape:groupmode="layer"
     id="layer1"><g
       inkscape:label="Layer 1"
       id="layer1-1"
       transform="matrix(0.13110085,0,0,0.13110085,6.7409258,-3.3380802)"><rect
         style="font-variation-settings:normal;opacity:1;vector-effect:none;fill:none;fill-opacity:1;fill-rule:evenodd;stroke-width:0.491555;stroke-linecap:butt;stroke-linejoin:miter;stroke-miterlimit:4;stroke-dasharray:none;stroke-dashoffset:0;stroke-opacity:1;-inkscape-stroke:none;stop-color:#000000;stop-opacity:1"
         id="rect2762"
         width="52.156235"
         height="22.138258"
         x="55.177456"
         y="243.7709"
         ry="8.5252748e-07" /><path
         style="fill:#000000;fill-opacity:0.75;stroke:#4c8adc;stroke-width:1;stroke-linejoin:round;stroke-dasharray:none;stroke-opacity:0.285106"
         d="m 140.66828,193.0574 -16.6887,7.20526 -9.62325,24.23486 -9.62319,24.2347 16.8123,-7.25535 16.81236,-7.25538 9.49982,-24.18454 9.4998,-24.1845 z"
         id="path7599" /><path
         style="fill:#000000;fill-opacity:0.75;stroke:#4c8adc;stroke-width:1;stroke-linejoin:round;stroke-dasharray:none;stroke-opacity:0.285106"
         d="m 27.095336,64.377355 -0.19302,-24.940988 5.177976,4.773493 c 2.847911,2.62543 8.591925,8.104989 12.764508,12.176811 l 7.586551,7.403321 -12.571438,12.764153 -12.571438,12.764144 z"
         id="path7601" /><path
         style="fill:#000000;fill-opacity:0.75;stroke:#4c8adc;stroke-width:1;stroke-linejoin:round;stroke-dasharray:none;stroke-opacity:0.285106"
         d="m 40.473937,103.88526 -13.08144,-12.9979 13.08937,-13.17356 13.0894,-13.17359 13.08142,12.99392 13.08151,12.99387 -13.08943,13.17757 -13.08939,13.17756 z"
         id="path7603" /><path
         style="fill:#000000;fill-opacity:0.75;stroke:#4c8adc;stroke-width:1;stroke-linejoin:round;stroke-dasharray:none;stroke-opacity:0.285106"
         d="m 79.824175,89.112828 c -0.0909,-0.0863 -5.76387,-5.79759 -12.60705,-12.691373 l -12.44219,-12.53406 12.50332,-12.362608 c 11.22407,-11.097802 12.52691,-12.272287 12.73462,-11.479075 0.25785,0.98471 0.072,49.315706 -0.18869,49.067096 z"
         id="path7605" /><path
         style="fill:#000000;fill-opacity:0.75;stroke:#4c8adc;stroke-width:1;stroke-linejoin:round;stroke-dasharray:none;stroke-opacity:0.285106"
         d="m 48.633817,231.28003 18.506253,-18.23832 18.088539,18.35424 18.088521,18.35428 -27.090727,-0.0925 c -14.899899,-0.0508 -31.36756,-0.10303 -36.594781,-0.11599 l -9.50406,-0.023 z"
         id="path7607" /><path
         style="fill:#000000;fill-opacity:0.75;stroke:#4c8adc;stroke-width:1;stroke-linejoin:round;stroke-dasharray:none;stroke-opacity:0.285106"
         d="m 66.490542,172.91111 c 20.86716,0.002 37.997818,0.12041 38.068068,0.26382 0.11246,0.2296 -1.0241,70.69367 -1.18453,73.43802 l -0.0628,1.07351 -37.380558,-37.3892 -37.380521,-37.38914 z"
         id="path7609" /><path
         style="fill:#000000;fill-opacity:0.75;stroke:#4c8adc;stroke-width:1;stroke-linejoin:round;stroke-dasharray:none;stroke-opacity:0.285106"
         d="m 79.351135,144.90193 25.829175,26.76863 -26.334395,0.0614 c -14.483834,0.0337 -38.154225,0.002 -52.600885,-0.0699 L -0.02157351,171.53092 26.7503,144.83212 53.522104,118.13324 Z"
         id="path7611" /></g><g
       inkscape:label="Layer 1"
       id="layer1-14"
       transform="matrix(0.16402862,0,0,0.16402862,32.363588,-5.9841065)"><rect
         style="font-variation-settings:normal;opacity:1;vector-effect:none;fill:none;fill-opacity:1;fill-rule:evenodd;stroke-width:0.491555;stroke-linecap:butt;stroke-linejoin:miter;stroke-miterlimit:4;stroke-dasharray:none;stroke-dashoffset:0;stroke-opacity:1;-inkscape-stroke:none;stop-color:#000000;stop-opacity:1"
         id="rect2762-9"
         width="52.156235"
         height="22.138258"
         x="55.177456"
         y="243.7709"
         ry="8.5252748e-07" /><path
         style="fill:#000000;fill-opacity:0.75;stroke:#4c8adc;stroke-width:1;stroke-linejoin:round;stroke-dasharray:none;stroke-opacity:0.285106"
         d="m 91.086821,200.92741 12.783859,-12.9229 26.07516,-0.14523 26.075,-0.14523 -12.87549,13.0198 -12.87554,13.01985 -25.98338,0.0486 -25.983338,0.0486 z"
         id="path7599-5" /><path
         style="fill:#000000;fill-opacity:0.75;stroke:#4c8adc;stroke-width:1;stroke-linejoin:round;stroke-dasharray:none;stroke-opacity:0.285106"
         d="m 122.40242,132.29303 -0.19302,-24.94099 5.17797,4.7735 c 2.84791,2.62543 8.59193,8.10499 12.76451,12.17681 l 7.58655,7.40332 -12.57144,12.76415 -12.57143,12.76415 z"
         id="path7601-9" /><path
         style="fill:#000000;fill-opacity:0.75;stroke:#4c8adc;stroke-width:1;stroke-linejoin:round;stroke-dasharray:none;stroke-opacity:0.285106"
         d="m 136.15624,171.80093 -13.08144,-12.99789 13.08937,-13.17356 13.0894,-13.17359 13.08142,12.99392 13.08151,12.99387 -13.08943,13.17756 -13.08939,13.17756 z"
         id="path7603-0" /><path
         style="fill:#000000;fill-opacity:0.75;stroke:#4c8adc;stroke-width:1;stroke-linejoin:round;stroke-dasharray:none;stroke-opacity:0.285106"
         d="m 101.73527,188.09837 c -0.0855,0.0916 -5.74624,5.81506 -12.579064,12.71911 L 76.732975,213.37032 64.259973,200.97713 C 53.063075,189.85191 51.877078,188.55954 52.668415,188.3448 c 0.982384,-0.26656 49.313125,-0.50933 49.066835,-0.24643 z"
         id="path7605-9" /><path
         style="fill:#000000;fill-opacity:0.75;stroke:#4c8adc;stroke-width:1;stroke-linejoin:round;stroke-dasharray:none;stroke-opacity:0.285106"
         d="M 72.029319,141.16029 71.911677,167.14305 46.14232,167.0264 20.372948,166.90971 39.541551,147.76602 c 10.54268,-10.52908 22.191878,-22.16878 25.887041,-25.86604 l 6.718093,-6.72272 z"
         id="path7607-3" /><path
         style="fill:#000000;fill-opacity:0.75;stroke:#4c8adc;stroke-width:1;stroke-linejoin:round;stroke-dasharray:none;stroke-opacity:0.285106"
         d="M 93.937449,130.20035 C 79.01215,115.61701 66.840995,103.56144 66.890933,103.40981 66.970922,103.16698 117.02403,53.556858 119.05653,51.705878 l 0.79505,-0.724052 0.61159,52.866654 0.6116,52.8666 z"
         id="path7609-4" /><path
         style="fill:#000000;fill-opacity:0.75;stroke:#4c8adc;stroke-width:1;stroke-linejoin:round;stroke-dasharray:none;stroke-opacity:0.285106"
         d="m 73.427937,149.63377 0.358618,-37.19646 18.816692,18.42379 c 10.349073,10.13308 27.201323,26.75506 37.449833,36.93734 l 18.63334,18.51352 -37.80862,0.25906 -37.808627,0.25916 z"
         id="path7611-0" /></g><g
       inkscape:label="Layer 1"
       id="layer1-6"
       transform="matrix(0.15568645,0,0,0.15568645,62.798876,0.50210117)"><rect
         style="font-variation-settings:normal;opacity:1;vector-effect:none;fill:none;fill-opacity:1;fill-rule:evenodd;stroke-width:0.491555;stroke-linecap:butt;stroke-linejoin:miter;stroke-miterlimit:4;stroke-dasharray:none;stroke-dashoffset:0;stroke-opacity:1;-inkscape-stroke:none;stop-color:#000000;stop-opacity:1"
         id="rect2762-8"
         width="52.156235"
         height="22.138258"
         x="55.177456"
         y="243.7709"
         ry="8.5252748e-07" /><path
         style="fill:#000000;fill-opacity:0.75;stroke:#4c8adc;stroke-width:1;stroke-linejoin:round;stroke-dasharray:none;stroke-opacity:0.285106"
         d="m 75.242723,79.019267 -12.903761,-12.80318 -0.106221,-26.07535 -0.106221,-26.07519 13.000523,12.89496 13.000573,12.895 0.0097,25.98342 0.0097,25.98339 z"
         id="path7599-6" /><path
         style="fill:#000000;fill-opacity:0.75;stroke:#4c8adc;stroke-width:1;stroke-linejoin:round;stroke-dasharray:none;stroke-opacity:0.285106"
         d="m 34.910514,121.14633 0.333122,-24.939509 5.076127,4.881659 c 2.791896,2.68492 8.419053,8.28442 12.504815,12.44335 l 7.428698,7.5617 -12.837887,12.49613 -12.837876,12.49613 z"
         id="path7601-7" /><path
         style="fill:#000000;fill-opacity:0.75;stroke:#4c8adc;stroke-width:1;stroke-linejoin:round;stroke-dasharray:none;stroke-opacity:0.285106"
         d="m 48.353653,106.88706 -13.08144,-12.997894 13.08937,-13.17356 13.0894,-13.173595 13.08142,12.993925 13.08151,12.99387 -13.08943,13.177564 -13.08939,13.17756 z"
         id="path7603-1" /><path
         style="fill:#000000;fill-opacity:0.75;stroke:#4c8adc;stroke-width:1;stroke-linejoin:round;stroke-dasharray:none;stroke-opacity:0.285106"
         d="m 25.126047,14.785985 c 0.125193,-0.0052 8.174489,-0.109234 17.887286,-0.231572 l 17.659585,-0.222508 0.186724,17.582152 C 61.027287,47.697369 60.965055,49.450348 60.250648,49.047916 59.363783,48.548303 24.766106,14.800411 25.126061,14.785999 Z"
         id="path7605-8" /><path
         style="fill:#000000;fill-opacity:0.75;stroke:#4c8adc;stroke-width:1;stroke-linejoin:round;stroke-dasharray:none;stroke-opacity:0.285106"
         d="M 52.880395,166.73674 34.668197,148.20478 53.047931,130.14214 71.427703,112.07953 71.296997,139.1701 c -0.07182,14.89981 -0.147277,31.36739 -0.167616,36.59457 l -0.03641,9.50403 z"
         id="path7607-4" /><path
         style="fill:#000000;fill-opacity:0.75;stroke:#4c8adc;stroke-width:1;stroke-linejoin:round;stroke-dasharray:none;stroke-opacity:0.285106"
         d="m 153.57668,137.15314 c -14.50204,15.00432 -26.49131,27.24078 -26.64321,27.19167 -0.24326,-0.0786 -50.124574,-49.86152 -51.98657,-51.88394 l -0.72836,-0.79109 52.86254,-0.8988 52.8625,-0.89881 z"
         id="path7609-9" /><path
         style="fill:#000000;fill-opacity:0.75;stroke:#4c8adc;stroke-width:1;stroke-linejoin:round;stroke-dasharray:none;stroke-opacity:0.285106"
         d="m 72.373265,149.62133 0.363002,-37.19642 18.81452,18.42601 c 10.347873,10.1343 27.198163,26.75827 37.445473,36.94175 l 18.63116,18.51572 -37.80865,0.2546 -37.808654,0.25471 z"
         id="path7611-7" /></g><g
       inkscape:label="Layer 1"
       id="layer1-5"
       transform="matrix(0.15385825,0,0,0.15385825,91.393179,-3.1209229)"><rect
         style="font-variation-settings:normal;opacity:1;vector-effect:none;fill:none;fill-opacity:1;fill-rule:evenodd;stroke-width:0.491555;stroke-linecap:butt;stroke-linejoin:miter;stroke-miterlimit:4;stroke-dasharray:none;stroke-dashoffset:0;stroke-opacity:1;-inkscape-stroke:none;stop-color:#000000;stop-opacity:1"
         id="rect2762-3"
         width="52.156235"
         height="22.138258"
         x="55.177456"
         y="243.7709"
         ry="8.5252748e-07" /><path
         style="fill:#000000;fill-opacity:0.75;stroke:#4c8adc;stroke-width:1;stroke-linejoin:round;stroke-dasharray:none;stroke-opacity:0.285106"
         d="m 120.72377,185.50821 -12.90958,12.79731 -26.075336,-0.10968 -26.075175,-0.10968 13.00216,-12.89331 13.002201,-12.89336 25.98261,0.20544 25.98257,0.20544 z"
         id="path7599-2" /><path
         style="fill:#000000;fill-opacity:0.75;stroke:#4c8adc;stroke-width:1;stroke-linejoin:round;stroke-dasharray:none;stroke-opacity:0.285106"
         d="m 137.35585,73.149537 24.9415,0.106872 -4.8354,5.120196 c -2.65949,2.816142 -8.20771,8.493867 -12.32941,12.617188 l -7.49399,7.496992 -12.61208,-12.724001 -12.61207,-12.72399 z"
         id="path7601-73" /><path
         style="fill:#000000;fill-opacity:0.75;stroke:#4c8adc;stroke-width:1;stroke-linejoin:round;stroke-dasharray:none;stroke-opacity:0.285106"
         d="m 49.479327,85.124025 -13.08144,-12.997894 13.08937,-13.17356 13.0894,-13.173595 13.08142,12.993925 13.08151,12.99387 -13.08943,13.177564 -13.08939,13.17756 z"
         id="path7603-9" /><path
         style="fill:#000000;fill-opacity:0.75;stroke:#4c8adc;stroke-width:1;stroke-linejoin:round;stroke-dasharray:none;stroke-opacity:0.285106"
         d="m 220.38648,173.36633 c -0.0867,0.0904 -5.82385,5.73734 -12.74881,12.54896 l -12.59076,12.38481 -12.30538,-12.55965 c -11.04642,-11.27464 -12.21495,-12.58283 -11.4208,-12.78692 0.98589,-0.25333 49.31553,0.15324 49.06573,0.4128 z"
         id="path7605-7" /><path
         style="fill:#000000;fill-opacity:0.75;stroke:#4c8adc;stroke-width:1;stroke-linejoin:round;stroke-dasharray:none;stroke-opacity:0.285106"
         d="m 118.38915,117.6688 -18.502469,18.24216 -18.092355,-18.35049 -18.09233,-18.350513 27.090747,0.08687 c 14.899907,0.04769 31.367587,0.09651 36.594797,0.108392 l 9.50407,0.02102 z"
         id="path7607-7" /><path
         style="fill:#000000;fill-opacity:0.75;stroke:#4c8adc;stroke-width:1;stroke-linejoin:round;stroke-dasharray:none;stroke-opacity:0.285106"
         d="m 110.7242,144.34306 c 14.83345,-14.67676 27.09296,-26.64246 27.24373,-26.58997 0.24144,0.084 48.99871,50.96833 50.81508,53.03182 l 0.71052,0.80715 -52.86943,-0.2818 -52.869388,-0.28178 z"
         id="path7609-95" /><path
         style="fill:#000000;fill-opacity:0.75;stroke:#4c8adc;stroke-width:1;stroke-linejoin:round;stroke-dasharray:none;stroke-opacity:0.285106"
         d="M 80.968,171.31568 54.240133,197.18703 54.13721,170.85277 c -0.05653,-14.48376 -0.06215,-38.15418 -0.01303,-52.60091 l 0.08973,-26.266791 26.740978,26.729741 26.741052,26.72967 z"
         id="path7611-3" /></g><g
       inkscape:label="Layer 1"
       id="layer1-4"
       transform="matrix(0.13853699,0,0,0.13853699,123.68196,-5.8386023)"><rect
         style="font-variation-settings:normal;opacity:1;vector-effect:none;fill:none;fill-opacity:1;fill-rule:evenodd;stroke-width:0.491555;stroke-linecap:butt;stroke-linejoin:miter;stroke-miterlimit:4;stroke-dasharray:none;stroke-dashoffset:0;stroke-opacity:1;-inkscape-stroke:none;stop-color:#000000;stop-opacity:1"
         id="rect2762-0"
         width="52.156235"
         height="22.138258"
         x="55.177456"
         y="243.7709"
         ry="8.5252748e-07" /><path
         style="fill:#000000;fill-opacity:0.75;stroke:#4c8adc;stroke-width:1;stroke-linejoin:round;stroke-dasharray:none;stroke-opacity:0.285106"
         d="m 76.462071,153.59859 -12.812211,12.89479 0.07956,26.07545 0.07956,26.07528 12.908318,-12.98726 12.908369,-12.9873 -0.175431,-25.98283 -0.175431,-25.98278 z"
         id="path7599-9" /><path
         style="fill:#000000;fill-opacity:0.75;stroke:#4c8adc;stroke-width:1;stroke-linejoin:round;stroke-dasharray:none;stroke-opacity:0.285106"
         d="m 91.344001,165.03558 -0.0836,-24.94159 5.156968,4.79616 c 2.836378,2.6379 8.556301,8.1426 12.710981,12.2327 l 7.554,7.43652 -12.62732,12.70888 -12.627301,12.70886 z"
         id="path7601-2" /><path
         style="fill:#000000;fill-opacity:0.75;stroke:#4c8adc;stroke-width:1;stroke-linejoin:round;stroke-dasharray:none;stroke-opacity:0.285106"
         d="m 104.63736,150.41313 -13.081437,-12.9979 13.089367,-13.17356 13.0894,-13.17359 13.08142,12.99392 13.08151,12.99387 -13.08943,13.17757 -13.08939,13.17756 z"
         id="path7603-4" /><path
         style="fill:#000000;fill-opacity:0.75;stroke:#4c8adc;stroke-width:1;stroke-linejoin:round;stroke-dasharray:none;stroke-opacity:0.285106"
         d="m 88.682596,139.22088 c -0.0867,0.0904 -5.82385,5.73734 -12.74881,12.54896 L 63.343026,164.15465 51.037646,151.595 c -11.04642,-11.27464 -12.21495,-12.58283 -11.4208,-12.78692 0.98589,-0.25333 49.31553,0.15324 49.06573,0.4128 z"
         id="path7605-92" /><path
         style="fill:#000000;fill-opacity:0.75;stroke:#4c8adc;stroke-width:1;stroke-linejoin:round;stroke-dasharray:none;stroke-opacity:0.285106"
         d="m 220.68475,136.21499 18.05294,18.68714 -18.53363,17.90469 -18.53367,17.90467 0.36256,-27.08847 c 0.19932,-14.89864 0.41567,-31.36497 0.48076,-36.5918 l 0.11771,-9.50336 z"
         id="path7607-9" /><path
         style="fill:#000000;fill-opacity:0.75;stroke:#4c8adc;stroke-width:1;stroke-linejoin:round;stroke-dasharray:none;stroke-opacity:0.285106"
         d="m 117.94678,165.35982 c 14.63966,-14.87007 26.74118,-26.99554 26.89263,-26.94503 0.24251,0.0808 49.663,50.32126 51.50629,52.36075 l 0.72104,0.79776 -52.86858,0.41168 -52.868544,0.4117 z"
         id="path7609-1" /><path
         style="fill:#000000;fill-opacity:0.75;stroke:#4c8adc;stroke-width:1;stroke-linejoin:round;stroke-dasharray:none;stroke-opacity:0.285106"
         d="m 200.22682,153.89705 -0.69636,37.19169 -18.6486,-18.59392 c -10.25662,-10.22667 -26.95729,-27.00095 -37.11283,-37.27593 l -18.46447,-18.68197 37.8094,0.0843 37.80943,0.0842 z"
         id="path7611-09" /></g><g
       inkscape:label="Layer 1"
       id="layer1-50"
       transform="matrix(0.13168159,0,0,0.13168159,160.05429,-9.9562761)"><rect
         style="font-variation-settings:normal;opacity:1;vector-effect:none;fill:none;fill-opacity:1;fill-rule:evenodd;stroke-width:0.491555;stroke-linecap:butt;stroke-linejoin:miter;stroke-miterlimit:4;stroke-dasharray:none;stroke-dashoffset:0;stroke-opacity:1;-inkscape-stroke:none;stop-color:#000000;stop-opacity:1"
         id="rect2762-84"
         width="52.156235"
         height="22.138258"
         x="55.177456"
         y="243.7709"
         ry="8.5252748e-07" /><path
         style="fill:#000000;fill-opacity:0.75;stroke:#4c8adc;stroke-width:1;stroke-linejoin:round;stroke-dasharray:none;stroke-opacity:0.285106"
         d="m 108.02719,155.05169 -18.177332,0.11444 -18.324754,18.55098 -18.324634,18.55086 18.31068,-0.11228 18.310744,-0.11228 18.191466,-18.55286 18.19142,-18.55284 z"
         id="path7599-93" /><path
         style="fill:#000000;fill-opacity:0.75;stroke:#4c8adc;stroke-width:1;stroke-linejoin:round;stroke-dasharray:none;stroke-opacity:0.285106"
         d="m 36.080407,203.55339 -24.94137,0.13238 4.78606,-5.16634 c 2.63235,-2.84154 8.12585,-8.57221 12.20782,-12.73488 l 7.42173,-7.56853 12.73355,12.60244 12.73353,12.60242 z"
         id="path7601-0" /><path
         style="fill:#000000;fill-opacity:0.75;stroke:#4c8adc;stroke-width:1;stroke-linejoin:round;stroke-dasharray:none;stroke-opacity:0.285106"
         d="m 140.05624,116.80326 0.17297,-18.44016 18.56997,0.174133 18.57002,0.174139 -0.17013,18.437368 -0.17003,18.43741 -18.57289,-0.17139 -18.57285,-0.17136 z"
         id="path7603-5" /><path
         style="fill:#000000;fill-opacity:0.75;stroke:#4c8adc;stroke-width:1;stroke-linejoin:round;stroke-dasharray:none;stroke-opacity:0.285106"
         d="m 150.27805,293.01718 c -0.12517,0.005 -8.17495,0.0661 -17.88825,0.13723 l -17.66052,0.12937 -0.094,-17.5829 c -0.0844,-15.78397 -0.0129,-17.5366 0.69935,-17.13041 0.88422,0.50429 35.30342,34.43419 34.9434,34.4467 z"
         id="path7605-2" /><path
         style="fill:#000000;fill-opacity:0.75;stroke:#4c8adc;stroke-width:1;stroke-linejoin:round;stroke-dasharray:none;stroke-opacity:0.285106"
         d="m 200.21612,155.09102 -18.42325,18.32217 -18.17171,-18.27191 -18.17168,-18.27194 27.09088,-0.0305 c 14.89996,-0.0169 31.3677,-0.0394 36.59492,-0.0502 l 9.50407,-0.0202 z"
         id="path7607-38" /><path
         style="fill:#000000;fill-opacity:0.75;stroke:#4c8adc;stroke-width:1;stroke-linejoin:round;stroke-dasharray:none;stroke-opacity:0.285106"
         d="m 117.94678,165.35982 c 14.63966,-14.87007 26.74118,-26.99554 26.89263,-26.94503 0.24251,0.0808 49.663,50.32126 51.50629,52.36075 l 0.72104,0.79776 -52.86858,0.41168 -52.868544,0.4117 z"
         id="path7609-7" /><path
         style="fill:#000000;fill-opacity:0.75;stroke:#4c8adc;stroke-width:1;stroke-linejoin:round;stroke-dasharray:none;stroke-opacity:0.285106"
         d="m 128.18367,231.19334 -0.69636,37.19169 -18.6486,-18.59392 C 98.582087,239.56444 81.881422,222.79016 71.725882,212.51518 l -18.46447,-18.68197 37.809395,0.0843 37.809433,0.0842 z"
         id="path7611-8" /></g><g
       inkscape:label="Layer 1"
       id="layer1-3"
       transform="matrix(0.12208242,0,0,0.12208242,190.73608,-8.2687088)"><rect
         style="font-variation-settings:normal;opacity:1;vector-effect:none;fill:none;fill-opacity:1;fill-rule:evenodd;stroke-width:0.491555;stroke-linecap:butt;stroke-linejoin:miter;stroke-miterlimit:4;stroke-dasharray:none;stroke-dashoffset:0;stroke-opacity:1;-inkscape-stroke:none;stop-color:#000000;stop-opacity:1"
         id="rect2762-35"
         width="52.156235"
         height="22.138258"
         x="55.177456"
         y="243.7709"
         ry="8.5252748e-07" /><path
         style="fill:#000000;fill-opacity:0.75;stroke:#4c8adc;stroke-width:1;stroke-linejoin:round;stroke-dasharray:none;stroke-opacity:0.285106"
         d="m 33.714638,156.55821 18.177676,-0.0242 18.465706,18.41068 18.465578,18.41057 -18.311004,0.0274 -18.311067,0.0274 -18.332433,-18.41363 -18.332387,-18.41356 z"
         id="path7599-0" /><path
         style="fill:#000000;fill-opacity:0.75;stroke:#4c8adc;stroke-width:1;stroke-linejoin:round;stroke-dasharray:none;stroke-opacity:0.285106"
         d="m 156.15232,271.46907 -24.94137,0.13238 4.78606,-5.16634 c 2.63235,-2.84154 8.12585,-8.57221 12.20782,-12.73488 l 7.42173,-7.56853 12.73355,12.60244 12.73353,12.60242 z"
         id="path7601-23" /><path
         style="fill:#000000;fill-opacity:0.75;stroke:#4c8adc;stroke-width:1;stroke-linejoin:round;stroke-dasharray:none;stroke-opacity:0.285106"
         d="m 167.44765,174.21264 0.17297,-18.44016 18.56997,0.17414 18.57002,0.17414 -0.17013,18.43736 -0.17003,18.43741 -18.57289,-0.17139 -18.57285,-0.17136 z"
         id="path7603-2" /><path
         style="fill:#000000;fill-opacity:0.75;stroke:#4c8adc;stroke-width:1;stroke-linejoin:round;stroke-dasharray:none;stroke-opacity:0.285106"
         d="m 148.0267,290.76583 c -0.12517,0.005 -8.17495,0.0661 -17.88825,0.13723 l -17.66052,0.12937 -0.094,-17.5829 c -0.0844,-15.78397 -0.0129,-17.5366 0.69935,-17.13041 0.88422,0.50429 35.30342,34.43419 34.9434,34.4467 z"
         id="path7605-71" /><path
         style="fill:#000000;fill-opacity:0.75;stroke:#4c8adc;stroke-width:1;stroke-linejoin:round;stroke-dasharray:none;stroke-opacity:0.285106"
         d="m 186.38631,135.89024 18.48755,-18.25728 18.10735,18.33568 18.10733,18.33572 -27.09082,-0.0647 c -14.89992,-0.0355 -31.36764,-0.0709 -36.59487,-0.0785 l -9.50408,-0.0132 z"
         id="path7607-0" /><path
         style="fill:#000000;fill-opacity:0.75;stroke:#4c8adc;stroke-width:1;stroke-linejoin:round;stroke-dasharray:none;stroke-opacity:0.285106"
         d="m 129.73537,231.9107 c -0.0157,-20.86715 0.0882,-37.99791 0.2315,-38.06828 0.22942,-0.11273 70.6945,0.96419 73.439,1.12229 l 1.07355,0.0618 -37.35749,37.41223 -37.35742,37.41223 z"
         id="path7609-0" /><path
         style="fill:#000000;fill-opacity:0.75;stroke:#4c8adc;stroke-width:1;stroke-linejoin:round;stroke-dasharray:none;stroke-opacity:0.285106"
         d="m 128.17331,231.20918 -0.0973,37.19808 -18.94564,-18.29117 C 98.710385,240.05593 81.741734,223.55279 71.422031,213.4427 l -18.762951,-18.38217 37.805849,-0.52464 37.805881,-0.52473 z"
         id="path7611-9" /></g><g
       inkscape:label="Layer 1"
       id="layer1-7"
       transform="matrix(0.12433135,0,0,0.12433135,229.07978,-9.9278127)"><rect
         style="font-variation-settings:normal;opacity:1;vector-effect:none;fill:none;fill-opacity:1;fill-rule:evenodd;stroke-width:0.491555;stroke-linecap:butt;stroke-linejoin:miter;stroke-miterlimit:4;stroke-dasharray:none;stroke-dashoffset:0;stroke-opacity:1;-inkscape-stroke:none;stop-color:#000000;stop-opacity:1"
         id="rect2762-4"
         width="52.156235"
         height="22.138258"
         x="55.177456"
         y="243.7709"
         ry="8.5252748e-07" /><path
         style="fill:#000000;fill-opacity:0.75;stroke:#4c8adc;stroke-width:1;stroke-linejoin:round;stroke-dasharray:none;stroke-opacity:0.285106"
         d="m 65.665828,151.08711 0.07358,-18.17754 -18.360453,-18.51565 -18.360344,-18.515521 -0.07714,18.310861 -0.07714,18.31093 18.363765,18.38238 18.363695,18.38234 z"
         id="path7599-51" /><path
         style="fill:#000000;fill-opacity:0.75;stroke:#4c8adc;stroke-width:1;stroke-linejoin:round;stroke-dasharray:none;stroke-opacity:0.285106"
         d="m 13.367637,271.63407 -17.7494399,17.52275 -0.1863,-7.04008 c -0.10249,-3.87209 -0.17705,-11.8102 -0.1657,-17.64031 l 0.0206,-10.6002 17.9150999,0.11752 17.91508,0.11751 z"
         id="path7601-78" /><path
         style="fill:#000000;fill-opacity:0.75;stroke:#4c8adc;stroke-width:1;stroke-linejoin:round;stroke-dasharray:none;stroke-opacity:0.285106"
         d="m 101.7905,153.37223 -3.724083,-18.06102 18.188163,-3.75034 18.18821,-3.75035 3.72626,18.05769 3.72637,18.05772 -18.19043,3.75364 -18.19039,3.75366 z"
         id="path7603-25" /><path
         style="fill:#000000;fill-opacity:0.75;stroke:#4c8adc;stroke-width:1;stroke-linejoin:round;stroke-dasharray:none;stroke-opacity:0.285106"
         d="m 141.64788,317.03157 c -0.12517,0.005 -8.17495,0.0661 -17.88825,0.13723 l -17.66052,0.12937 -0.094,-17.5829 c -0.0844,-15.78397 -0.0129,-17.5366 0.69935,-17.13041 0.88422,0.50429 35.30342,34.43419 34.9434,34.4467 z"
         id="path7605-4" /><path
         style="fill:#000000;fill-opacity:0.75;stroke:#4c8adc;stroke-width:1;stroke-linejoin:round;stroke-dasharray:none;stroke-opacity:0.285106"
         d="m 65.629957,246.91249 0.10521,25.98281 -25.769408,0.10438 -25.769422,0.10434 19.003694,-19.30741 c 10.45195,-10.61912 22.000935,-22.35828 25.664248,-26.08711 l 6.660147,-6.78013 z"
         id="path7607-5" /><path
         style="fill:#000000;fill-opacity:0.75;stroke:#4c8adc;stroke-width:1;stroke-linejoin:round;stroke-dasharray:none;stroke-opacity:0.285106"
         d="M 94.43727,267.86566 C 79.748274,253.04433 67.772449,240.79471 67.824818,240.64389 c 0.08377,-0.2415 50.927842,-49.04076 52.989842,-50.85884 l 0.80655,-0.7112 -0.23815,52.86965 -0.23811,52.8696 z"
         id="path7609-3" /><path
         style="fill:#000000;fill-opacity:0.75;stroke:#4c8adc;stroke-width:1;stroke-linejoin:round;stroke-dasharray:none;stroke-opacity:0.285106"
         d="m 93.805161,213.6492 -26.792848,25.80407 -0.03668,-26.33444 c -0.02008,-14.48387 0.03376,-38.15423 0.119304,-52.60079 l 0.155772,-26.26648 26.673652,26.7969 26.673739,26.79685 z"
         id="path7611-01" /></g><g
       inkscape:label="Layer 1"
       id="layer1-8"
       transform="matrix(0.14176597,0,0,0.14176597,263.51958,-8.4213527)"><rect
         style="font-variation-settings:normal;opacity:1;vector-effect:none;fill:none;fill-opacity:1;fill-rule:evenodd;stroke-width:0.491555;stroke-linecap:butt;stroke-linejoin:miter;stroke-miterlimit:4;stroke-dasharray:none;stroke-dashoffset:0;stroke-opacity:1;-inkscape-stroke:none;stop-color:#000000;stop-opacity:1"
         id="rect2762-1"
         width="52.156235"
         height="22.138258"
         x="55.177456"
         y="243.7709"
         ry="8.5252748e-07" /><path
         style="fill:#000000;fill-opacity:0.75;stroke:#4c8adc;stroke-width:1;stroke-linejoin:round;stroke-dasharray:none;stroke-opacity:0.285106"
         d="m 79.042641,188.73886 -18.17654,-0.20423 -18.23287,-18.6413 -18.23274,-18.6412 18.3099,0.20277 18.30997,0.20278 18.09956,18.64258 18.09953,18.6425 z"
         id="path7599-1" /><path
         style="fill:#000000;fill-opacity:0.75;stroke:#4c8adc;stroke-width:1;stroke-linejoin:round;stroke-dasharray:none;stroke-opacity:0.285106"
         d="m 23.298998,93.167658 17.700443,-17.572245 0.205957,7.039532 c 0.113301,3.871789 0.210026,11.809663 0.214955,17.639785 l 0.009,10.60021 -17.915358,-0.0675 -17.9153379,-0.0675 z"
         id="path7601-6" /><path
         style="fill:#000000;fill-opacity:0.75;stroke:#4c8adc;stroke-width:1;stroke-linejoin:round;stroke-dasharray:none;stroke-opacity:0.285106"
         d="m 24.111677,131.20237 0.03283,-18.44093 18.57076,0.033 18.57081,0.033 -0.03002,18.43812 -0.02992,18.43818 -18.573654,-0.0303 -18.57362,-0.0302 z"
         id="path7603-11" /><path
         style="fill:#000000;fill-opacity:0.75;stroke:#4c8adc;stroke-width:1;stroke-linejoin:round;stroke-dasharray:none;stroke-opacity:0.285106"
         d="m 78.764064,110.43669 c -0.12517,0.005 -8.17495,0.0661 -17.88825,0.13723 l -17.66052,0.12937 -0.094,-17.582905 c -0.0844,-15.78397 -0.0129,-17.5366 0.69935,-17.13041 0.88422,0.50429 35.30342,34.434195 34.9434,34.446705 z"
         id="path7605-81" /><path
         style="fill:#000000;fill-opacity:0.75;stroke:#4c8adc;stroke-width:1;stroke-linejoin:round;stroke-dasharray:none;stroke-opacity:0.285106"
         d="m 4.1801811,170.41578 18.4458099,-18.29945 18.149164,18.29429 18.149156,18.29433 -27.090897,-0.003 c -14.899965,-0.002 -31.36771594,7.2e-4 -36.5949589,0.005 l -9.5040801,0.009 z"
         id="path7607-1" /><path
         style="fill:#000000;fill-opacity:0.75;stroke:#4c8adc;stroke-width:1;stroke-linejoin:round;stroke-dasharray:none;stroke-opacity:0.285106"
         d="m 42.107764,266.87333 c -20.867159,0.009 -37.9978807,-0.10024 -38.0682021,-0.24357 -0.1126622,-0.22945 0.9865853,-70.69419 1.1455629,-73.43864 l 0.062142,-1.07353 37.4003892,37.36934 37.400382,37.36928 z"
         id="path7609-5" /><path
         style="fill:#000000;fill-opacity:0.75;stroke:#4c8adc;stroke-width:1;stroke-linejoin:round;stroke-dasharray:none;stroke-opacity:0.285106"
         d="m 80.594422,227.30273 -0.57632,37.19375 -18.708519,-18.53362 C 51.02002,235.76934 34.265297,219.04905 24.076638,208.8069 l -18.5246692,-18.62227 37.8094712,-0.0377 37.809496,-0.0378 z"
         id="path7611-00" /></g></g></svg>
