<?xml version="1.0" encoding="UTF-8" standalone="no"?>
<!-- Created with Inkscape (http://www.inkscape.org/) -->

<svg
   width="203.07219mm"
   height="117.30402mm"
   viewBox="0 0 203.07218 117.30401"
   version="1.1"
   id="svg1869"
   inkscape:version="1.2.1 (9c6d41e, 2022-07-14)"
   sodipodi:docname="boat2.svg"
   xmlns:inkscape="http://www.inkscape.org/namespaces/inkscape"
   xmlns:sodipodi="http://sodipodi.sourceforge.net/DTD/sodipodi-0.dtd"
   xmlns="http://www.w3.org/2000/svg"
   xmlns:svg="http://www.w3.org/2000/svg">
  <sodipodi:namedview
     id="namedview1871"
     pagecolor="#ffffff"
     bordercolor="#666666"
     borderopacity="1.0"
     inkscape:showpageshadow="2"
     inkscape:pageopacity="0.0"
     inkscape:pagecheckerboard="0"
     inkscape:deskcolor="#d1d1d1"
     inkscape:document-units="mm"
     showgrid="true"
     inkscape:zoom="0.70513298"
     inkscape:cx="468.70592"
     inkscape:cy="333.27047"
     inkscape:window-width="1307"
     inkscape:window-height="886"
     inkscape:window-x="0"
     inkscape:window-y="38"
     inkscape:window-maximized="0"
     inkscape:current-layer="layer1">
    <inkscape:grid
       type="xygrid"
       id="grid1990"
       originx="41.12461"
       originy="-45.324884" />
  </sodipodi:namedview>
  <defs
     id="defs1866" />
  <g
     inkscape:label="Layer 1"
     inkscape:groupmode="layer"
     id="layer1"
     transform="translate(41.124613,-45.324935)">
    <path
       style="fill:#000000;fill-opacity:0.75;stroke:#4c8adc;stroke-width:1;stroke-linejoin:round;stroke-dasharray:none;stroke-opacity:0.285106"
       d="M 27.270113,161.70476 9.093411,161.8918 -9.536438,143.64725 -28.166244,125.4027 l 18.310106,-0.19126 18.310096,-0.19135 18.496433,18.24886 18.496401,18.24881 z"
       id="path7599" />
    <path
       style="fill:#000000;fill-opacity:0.75;stroke:#4c8adc;stroke-width:1;stroke-linejoin:round;stroke-dasharray:none;stroke-opacity:0.285106"
       d="m 67.973653,143.69725 17.692815,-17.57996 0.209063,7.03946 c 0.114979,3.87172 0.215202,11.80958 0.222698,17.63968 l 0.01365,10.6002 -17.915377,-0.0596 -17.915381,-0.0596 z"
       id="path7601" />
    <path
       style="fill:#000000;fill-opacity:0.75;stroke:#4c8adc;stroke-width:1;stroke-linejoin:round;stroke-dasharray:none;stroke-opacity:0.285106"
       d="m 87.833061,143.68808 -0.13651,-18.44046 18.570289,-0.13742 18.57033,-0.13741 0.13949,18.43763 0.13949,18.43765 -18.57316,0.14044 -18.573109,0.14044 z"
       id="path7603" />
    <path
       style="fill:#000000;fill-opacity:0.75;stroke:#4c8adc;stroke-width:1;stroke-linejoin:round;stroke-dasharray:none;stroke-opacity:0.285106"
       d="m 126.193,160.7069 c -0.003,-0.12532 -0.0108,-8.17522 -0.0169,-17.88877 l -0.0107,-17.66099 17.58312,0.0241 c 15.7842,0.0217 17.5363,0.10502 17.12534,0.81449 -0.51021,0.88081 -34.67067,35.07118 -34.68074,34.71112 z"
       id="path7605" />
    <path
       style="fill:#000000;fill-opacity:0.75;stroke:#4c8adc;stroke-width:1;stroke-linejoin:round;stroke-dasharray:none;stroke-opacity:0.285106"
       d="m 65.700096,143.32202 -18.45588,18.28929 -18.139084,-18.3043 -18.139144,-18.30423 27.09087,0.0178 c 14.900011,0.009 31.367771,0.0164 36.595035,0.0153 l 9.504103,-0.003 z"
       id="path7607" />
    <path
       style="fill:#000000;fill-opacity:0.75;stroke:#4c8adc;stroke-width:1;stroke-linejoin:round;stroke-dasharray:none;stroke-opacity:0.285106"
       d="m 36.087232,83.706538 c -1.16503,20.834612 -2.23865,37.932012 -2.38577,37.994142 -0.23558,0.0994 -70.526655,-4.96376 -73.257784,-5.27689 L -40.624679,116.30137 -1.2098901,81.063134 38.204922,45.824867 Z"
       id="path7609" />
    <path
       style="fill:#000000;fill-opacity:0.75;stroke:#4c8adc;stroke-width:1;stroke-linejoin:round;stroke-dasharray:none;stroke-opacity:0.285106"
       d="M 77.912031,121.01536 40.809359,118.35102 60.36447,100.71296 C 71.119716,91.012036 88.754502,75.222706 99.552812,65.625456 l 19.633528,-17.449235 -2.08628,37.751895 -2.0853,37.751964 z"
       id="path7611" />
  </g>
</svg>
