<?xml version="1.0" encoding="UTF-8" standalone="no"?>
<!-- Created with Inkscape (http://www.inkscape.org/) -->

<svg
   width="164.14598mm"
   height="190.09148mm"
   viewBox="0 0 164.14598 190.09147"
   version="1.1"
   id="svg1869"
   inkscape:version="1.2.1 (9c6d41e, 2022-07-14)"
   sodipodi:docname="swan.svg"
   xmlns:inkscape="http://www.inkscape.org/namespaces/inkscape"
   xmlns:sodipodi="http://sodipodi.sourceforge.net/DTD/sodipodi-0.dtd"
   xmlns="http://www.w3.org/2000/svg"
   xmlns:svg="http://www.w3.org/2000/svg">
  <sodipodi:namedview
     id="namedview1871"
     pagecolor="#ffffff"
     bordercolor="#666666"
     borderopacity="1.0"
     inkscape:showpageshadow="2"
     inkscape:pageopacity="0.0"
     inkscape:pagecheckerboard="0"
     inkscape:deskcolor="#d1d1d1"
     inkscape:document-units="mm"
     showgrid="true"
     inkscape:zoom="0.70513298"
     inkscape:cx="179.39879"
     inkscape:cy="419.77898"
     inkscape:window-width="1482"
     inkscape:window-height="886"
     inkscape:window-x="0"
     inkscape:window-y="38"
     inkscape:window-maximized="0"
     inkscape:current-layer="layer1">
    <inkscape:grid
       type="xygrid"
       id="grid1990"
       originx="-30.768025"
       originy="-49.388627" />
  </sodipodi:namedview>
  <defs
     id="defs1866" />
  <g
     inkscape:label="Layer 1"
     inkscape:groupmode="layer"
     id="layer1"
     transform="translate(-30.768022,-49.388665)">
    <rect
       style="font-variation-settings:normal;opacity:1;vector-effect:none;fill:none;fill-opacity:1;fill-rule:evenodd;stroke-width:0.491555;stroke-linecap:butt;stroke-linejoin:miter;stroke-miterlimit:4;stroke-dasharray:none;stroke-dashoffset:0;stroke-opacity:1;-inkscape-stroke:none;stop-color:#000000;stop-opacity:1"
       id="rect2762"
       width="52.156235"
       height="22.138258"
       x="55.177456"
       y="243.7709"
       ry="8.5252748e-07" />
    <path
       style="fill:#000000;fill-opacity:0.75;stroke:#4c8adc;stroke-width:1;stroke-linejoin:round;stroke-dasharray:none;stroke-opacity:0.285106"
       d="m 155.90315,90.746508 -13.03708,12.667372 -0.37922,26.0728 -0.37922,26.07267 13.13481,-12.75818 13.13486,-12.75818 0.28148,-25.98191 0.28149,-25.981861 z"
       id="path7599" />
    <path
       style="fill:#000000;fill-opacity:0.75;stroke:#4c8adc;stroke-width:1;stroke-linejoin:round;stroke-dasharray:none;stroke-opacity:0.285106"
       d="m 85.380911,185.49548 24.941709,0.0424 -4.82216,5.13269 c -2.65219,2.82298 -8.185737,8.51503 -12.296769,12.64899 L 85.729089,210.83587 73.084174,198.1445 60.439262,185.45314 Z"
       id="path7601" />
    <path
       style="fill:#000000;fill-opacity:0.75;stroke:#4c8adc;stroke-width:1;stroke-linejoin:round;stroke-dasharray:none;stroke-opacity:0.285106"
       d="m 45.239998,225.1893 -13.037736,-13.04173 13.13355,-13.12952 13.133546,-13.12957 13.03774,13.03776 13.0378,13.03772 -13.13361,13.13354 -13.133555,13.13353 z"
       id="path7603" />
    <path
       style="fill:#000000;fill-opacity:0.75;stroke:#4c8adc;stroke-width:1;stroke-linejoin:round;stroke-dasharray:none;stroke-opacity:0.285106"
       d="m 31.659821,159.74439 c 0.09054,0.0867 5.751608,5.80975 12.580247,12.71792 l 12.415699,12.5603 -12.529357,12.3362 c -11.247477,11.07409 -12.552842,12.24576 -12.758846,11.45216 -0.25575,-0.98525 0.03212,-49.31573 0.292257,-49.06658 z"
       id="path7605" />
    <path
       style="fill:#000000;fill-opacity:0.75;stroke:#4c8adc;stroke-width:1;stroke-linejoin:round;stroke-dasharray:none;stroke-opacity:0.285106"
       d="m 142.52095,75.869207 0.35878,-25.980543 25.76717,0.355837 25.76717,0.355836 -19.34546,18.964939 C 164.4286,79.995999 152.67192,91.527116 148.94265,95.18999 l -6.78049,6.65978 z"
       id="path7607" />
    <path
       style="fill:#000000;fill-opacity:0.75;stroke:#4c8adc;stroke-width:1;stroke-linejoin:round;stroke-dasharray:none;stroke-opacity:0.285106"
       d="m 86.610123,212.15132 c 14.754767,-14.75584 26.950547,-26.78649 27.101647,-26.73476 0.24189,0.0828 49.26971,50.70643 51.09705,52.7602 l 0.7148,0.80338 H 112.6534 59.783277 Z"
       id="path7609" />
    <path
       style="fill:#000000;fill-opacity:0.75;stroke:#4c8adc;stroke-width:1;stroke-linejoin:round;stroke-dasharray:none;stroke-opacity:0.285106"
       d="m 141.50748,158.7167 26.99736,-25.59003 -0.1729,26.33388 c -0.0951,14.48358 -0.33704,38.15276 -0.53772,52.59819 l -0.3648,26.2644 -26.45964,-27.00826 -26.45967,-27.00824 z"
       id="path7611" />
  </g>
</svg>
