<?xml version="1.0" encoding="UTF-8" standalone="no"?>
<!-- Created with Inkscape (http://www.inkscape.org/) -->

<svg
   width="143.76202mm"
   height="155.18823mm"
   viewBox="0 0 143.76202 155.18824"
   version="1.1"
   id="svg1869"
   inkscape:version="1.2.1 (9c6d41e, 2022-07-14)"
   sodipodi:docname="factory.svg"
   xmlns:inkscape="http://www.inkscape.org/namespaces/inkscape"
   xmlns:sodipodi="http://sodipodi.sourceforge.net/DTD/sodipodi-0.dtd"
   xmlns="http://www.w3.org/2000/svg"
   xmlns:svg="http://www.w3.org/2000/svg">
  <sodipodi:namedview
     id="namedview1871"
     pagecolor="#ffffff"
     bordercolor="#666666"
     borderopacity="1.0"
     inkscape:showpageshadow="2"
     inkscape:pageopacity="0.0"
     inkscape:pagecheckerboard="0"
     inkscape:deskcolor="#d1d1d1"
     inkscape:document-units="mm"
     showgrid="true"
     inkscape:zoom="0.70513298"
     inkscape:cx="443.8879"
     inkscape:cy="459.4878"
     inkscape:window-width="1307"
     inkscape:window-height="886"
     inkscape:window-x="2029"
     inkscape:window-y="124"
     inkscape:window-maximized="0"
     inkscape:current-layer="layer1">
    <inkscape:grid
       type="xygrid"
       id="grid1990"
       originx="41.509384"
       originy="-111.24011" />
  </sodipodi:namedview>
  <defs
     id="defs1866" />
  <g
     inkscape:label="Layer 1"
     inkscape:groupmode="layer"
     id="layer1"
     transform="translate(41.509386,-111.24013)">
    <path
       style="fill:#000000;fill-opacity:0.75;stroke:#4c8adc;stroke-width:1;stroke-linejoin:round;stroke-dasharray:none;stroke-opacity:0.285106"
       d="m 101.18443,169.55794 0.26698,18.17572 -18.162357,18.70993 -18.162322,18.70991 -0.271808,-18.30909 -0.271928,-18.30908 18.167227,-18.57653 18.167198,-18.57654 z"
       id="path7599" />
    <path
       style="fill:#000000;fill-opacity:0.75;stroke:#4c8adc;stroke-width:1;stroke-linejoin:round;stroke-dasharray:none;stroke-opacity:0.285106"
       d="m 44.848696,245.52332 -17.466737,17.80459 -0.298989,-7.03622 c -0.164437,-3.86992 -0.366077,-11.80584 -0.448062,-17.63538 l -0.149053,-10.59916 17.914688,-0.16932 17.914689,-0.16931 z"
       id="path7601" />
    <path
       style="fill:#000000;fill-opacity:0.75;stroke:#4c8adc;stroke-width:1;stroke-linejoin:round;stroke-dasharray:none;stroke-opacity:0.285106"
       d="m -41.004986,245.68141 -0.0044,-18.44097 18.570811,-0.004 18.5708249,-0.004 0.00723,18.43816 0.00728,18.43818 -18.5736679,0.007 -18.573651,0.007 z"
       id="path7603" />
    <path
       style="fill:#000000;fill-opacity:0.75;stroke:#4c8adc;stroke-width:1;stroke-linejoin:round;stroke-dasharray:none;stroke-opacity:0.285106"
       d="m 64.279118,112.17273 c 0.1253,-0.005 8.17453,-0.10414 17.88741,-0.22068 l 17.65971,-0.21192 0.176252,17.58226 c 0.15813,15.78341 0.0948,17.53633 -0.619302,17.13347 -0.88659,-0.50012 -35.463955,-34.26878 -35.10404,-34.28294 z"
       id="path7605" />
    <path
       style="fill:#000000;fill-opacity:0.75;stroke:#4c8adc;stroke-width:1;stroke-linejoin:round;stroke-dasharray:none;stroke-opacity:0.285106"
       d="m 82.070504,131.66492 18.628816,18.11311 -17.964327,18.47585 -17.964318,18.47585 -0.485227,-27.08653 c -0.26688,-14.89761 -0.565875,-31.36266 -0.66449,-36.58899 l -0.179362,-9.50241 z"
       id="path7607" />
    <path
       style="fill:#000000;fill-opacity:0.75;stroke:#4c8adc;stroke-width:1;stroke-linejoin:round;stroke-dasharray:none;stroke-opacity:0.285106"
       d="m 101.37519,227.79518 c 0.31993,20.86469 0.46514,37.99515 0.32267,38.06761 -0.22788,0.11596 -70.701097,0.0654 -73.447572,-0.0527 l -1.074352,-0.0462 36.808411,-37.95256 36.808443,-37.95263 z"
       id="path7609" />
    <path
       style="fill:#000000;fill-opacity:0.75;stroke:#4c8adc;stroke-width:1;stroke-linejoin:round;stroke-dasharray:none;stroke-opacity:0.285106"
       d="m 38.6868,199.44551 25.689312,26.90292 -26.33436,-0.0759 c -14.483831,-0.0417 -38.15374341,-0.19651 -52.599822,-0.34398 l -26.26555,-0.26837 26.910618,-26.55895 26.910587,-26.55897 z"
       id="path7611" />
  </g>
</svg>
