<?xml version="1.0" encoding="UTF-8" standalone="no"?>
<!-- Created with Inkscape (http://www.inkscape.org/) -->

<svg
   width="285.75mm"
   height="31.750002mm"
   viewBox="0 0 285.75 31.750002"
   version="1.1"
   id="svg5"
   inkscape:version="1.2.1 (9c6d41e, 2022-07-14)"
   sodipodi:docname="set01.svg"
   inkscape:export-filename="puzzle01a.pdf"
   inkscape:export-xdpi="96"
   inkscape:export-ydpi="96"
   xml:space="preserve"
   xmlns:inkscape="http://www.inkscape.org/namespaces/inkscape"
   xmlns:sodipodi="http://sodipodi.sourceforge.net/DTD/sodipodi-0.dtd"
   xmlns="http://www.w3.org/2000/svg"
   xmlns:svg="http://www.w3.org/2000/svg"><sodipodi:namedview
     id="namedview7"
     pagecolor="#ffffff"
     bordercolor="#666666"
     borderopacity="1.0"
     inkscape:pageshadow="2"
     inkscape:pageopacity="0.0"
     inkscape:pagecheckerboard="0"
     inkscape:document-units="mm"
     showgrid="true"
     inkscape:zoom="0.93677454"
     inkscape:cx="350.67136"
     inkscape:cy="-56.577114"
     inkscape:window-width="1340"
     inkscape:window-height="890"
     inkscape:window-x="2014"
     inkscape:window-y="60"
     inkscape:window-maximized="0"
     inkscape:current-layer="layer1"
     inkscape:showpageshadow="2"
     inkscape:deskcolor="#d1d1d1"><inkscape:grid
       type="xygrid"
       id="grid824"
       originx="-8.0112513e-07"
       originy="3.5375777e-09" /></sodipodi:namedview><defs
     id="defs2" /><g
     inkscape:label="Layer 1"
     inkscape:groupmode="layer"
     id="layer1"><g
       inkscape:label="Layer 1"
       id="layer1-9"
       transform="matrix(0.16821124,0,0,0.16821124,-3.3109169,-9.0813134)"><path
         style="fill:#000000;fill-opacity:0.75;stroke:#4c8adc;stroke-width:1;stroke-linejoin:round;stroke-dasharray:none;stroke-opacity:0.285106"
         d="m 64.899403,107.40988 12.94908,12.75731 0.1987,26.0748 0.19869,26.07477 -13.04615,-12.84891 -13.04622,-12.84883 -0.10157,-25.98323 -0.1016,-25.983188 z"
         id="path7599" /><path
         style="fill:#000000;fill-opacity:0.75;stroke:#4c8adc;stroke-width:1;stroke-linejoin:round;stroke-dasharray:none;stroke-opacity:0.285106"
         d="m 77.547823,92.743692 -0.03221,24.941718 -5.134691,-4.82004 c -2.824065,-2.65102 -8.518404,-8.1822 -12.654062,-12.29153 L 52.207458,93.102352 64.89359,80.452192 77.579724,67.802032 Z"
         id="path7601" /><path
         style="fill:#000000;fill-opacity:0.75;stroke:#4c8adc;stroke-width:1;stroke-linejoin:round;stroke-dasharray:none;stroke-opacity:0.285106"
         d="m 107.41671,146.65675 -13.146542,-12.93205 13.023112,-13.23907 13.02311,-13.23912 13.14649,12.92808 13.14656,12.92804 -13.02313,13.2431 -13.02308,13.24308 z"
         id="path7603" /><path
         style="fill:#000000;fill-opacity:0.75;stroke:#4c8adc;stroke-width:1;stroke-linejoin:round;stroke-dasharray:none;stroke-opacity:0.285106"
         d="m 76.232728,67.238473 c -0.08709,0.09018 -5.81887,5.742358 -12.737748,12.560174 L 50.915249,92.194648 38.598649,79.646002 C 27.54224,68.381168 26.372594,67.073994 27.166508,66.869235 c 0.985659,-0.254242 49.315627,0.109389 49.066063,0.369134 z"
         id="path7605" /><path
         style="fill:#000000;fill-opacity:0.75;stroke:#4c8adc;stroke-width:1;stroke-linejoin:round;stroke-dasharray:none;stroke-opacity:0.285106"
         d="m 141.01812,140.8899 18.37905,-18.36648 18.21568,18.22808 18.21567,18.22808 -27.0907,0.0958 c -14.89991,0.0527 -31.36756,0.11495 -36.59476,0.13841 l -9.50402,0.0427 z"
         id="path7607" /><path
         style="fill:#000000;fill-opacity:0.75;stroke:#4c8adc;stroke-width:1;stroke-linejoin:round;stroke-dasharray:none;stroke-opacity:0.285106"
         d="m 159.01934,160.08134 c 20.8667,-0.13814 37.99777,-0.1341 38.06899,0.009 0.11392,0.22891 -0.55058,70.69898 -0.69264,73.44432 l -0.0556,1.07391 -37.63043,-37.13767 -37.63049,-37.13771 z"
         id="path7609" /><path
         style="fill:#000000;fill-opacity:0.75;stroke:#4c8adc;stroke-width:1;stroke-linejoin:round;stroke-dasharray:none;stroke-opacity:0.285106"
         d="m 106.31583,200.12594 -26.708392,25.89149 -0.122735,-26.33418 c -0.06751,-14.48374 -0.09127,-38.15414 -0.05276,-52.60092 l 0.07026,-26.26683 26.761157,26.70954 26.76119,26.7095 z"
         id="path7611" /></g><g
       inkscape:label="Layer 1"
       id="layer1-0"
       transform="matrix(0.15332549,0,0,0.15332549,45.05339,-6.7287716)"><path
         style="fill:#000000;fill-opacity:0.75;stroke:#4c8adc;stroke-width:1;stroke-linejoin:round;stroke-dasharray:none;stroke-opacity:0.285106"
         d="m 79.878723,87.524515 -5.939672,17.179875 11.397504,23.45271 11.397471,23.45268 5.985974,-17.30505 5.98611,-17.305 L 97.262241,93.672205 85.818412,70.344673 Z"
         id="path7599-5" /><path
         style="fill:#000000;fill-opacity:0.75;stroke:#4c8adc;stroke-width:1;stroke-linejoin:round;stroke-dasharray:none;stroke-opacity:0.285106"
         d="m -15.014638,119.08688 -9.380353,23.11059 -2.953202,-6.39348 c -1.624254,-3.5164 -4.829686,-10.77895 -7.123158,-16.13901 l -4.169939,-9.74557 16.503366,-6.97163 16.5033727,-6.971606 z"
         id="path7601-2" /><path
         style="fill:#000000;fill-opacity:0.75;stroke:#4c8adc;stroke-width:1;stroke-linejoin:round;stroke-dasharray:none;stroke-opacity:0.285106"
         d="m -66.530698,141.90118 -7.238585,-16.9609 17.080493,-7.28916 17.080505,-7.28916 7.240059,16.95722 7.240159,16.9572 -17.081944,7.29304 -17.081928,7.29303 z"
         id="path7603-2" /><path
         style="fill:#000000;fill-opacity:0.75;stroke:#4c8adc;stroke-width:1;stroke-linejoin:round;stroke-dasharray:none;stroke-opacity:0.285106"
         d="m -54.958229,77.155989 c 0.05323,0.113542 3.26805,7.493571 7.144476,16.400138 l 7.048045,16.193673 -16.136143,6.98512 c -14.485279,6.27038 -16.125417,6.89222 -16.031226,6.07775 0.116896,-1.01118 17.821971,-45.982797 17.974684,-45.65658 z"
         id="path7605-7" /><path
         style="fill:#000000;fill-opacity:0.75;stroke:#4c8adc;stroke-width:1;stroke-linejoin:round;stroke-dasharray:none;stroke-opacity:0.285106"
         d="M 60.519008,197.74052 49.761409,174.08906 73.218623,163.41977 96.675826,152.7505 87.268163,178.15545 c -5.174213,13.97274 -10.889074,29.41708 -12.699618,34.32077 l -3.291861,8.9158 z"
         id="path7607-3" /><path
         style="fill:#000000;fill-opacity:0.75;stroke:#4c8adc;stroke-width:1;stroke-linejoin:round;stroke-dasharray:none;stroke-opacity:0.285106"
         d="m 12.866347,159.833 c 7.377774,-19.51938 13.544345,-35.50209 13.70348,-35.51706 0.254579,-0.0238 65.767699,25.94724 68.278151,27.06738 l 0.982025,0.43817 -48.188657,21.75107 -48.18872446,21.75111 z"
         id="path7609-7" /><path
         style="fill:#000000;fill-opacity:0.75;stroke:#4c8adc;stroke-width:1;stroke-linejoin:round;stroke-dasharray:none;stroke-opacity:0.285106"
         d="M -8.8767951,138.72189 25.327813,124.10161 16.019408,148.7361 c -5.119559,13.54891 -13.5672477,35.66057 -18.7726125,49.13704 l -9.4645085,24.50253 -15.431967,-34.51686 -15.431996,-34.51683 z"
         id="path7611-9" /></g><g
       inkscape:label="Layer 1"
       id="layer1-02"
       transform="matrix(0.18091293,0,0,0.18091293,73.825066,-18.353035)"><path
         style="fill:#000000;fill-opacity:0.75;stroke:#4c8adc;stroke-width:1;stroke-linejoin:round;stroke-dasharray:none;stroke-opacity:0.285106"
         d="m 101.18443,169.55794 0.26698,18.17572 -18.162357,18.70993 -18.162322,18.70991 -0.271808,-18.30909 -0.271928,-18.30908 18.167227,-18.57653 18.167198,-18.57654 z"
         id="path7599-3" /><path
         style="fill:#000000;fill-opacity:0.75;stroke:#4c8adc;stroke-width:1;stroke-linejoin:round;stroke-dasharray:none;stroke-opacity:0.285106"
         d="m 44.848696,245.52332 -17.466737,17.80459 -0.298989,-7.03622 c -0.164437,-3.86992 -0.366077,-11.80584 -0.448062,-17.63538 l -0.149053,-10.59916 17.914688,-0.16932 17.914689,-0.16931 z"
         id="path7601-9" /><path
         style="fill:#000000;fill-opacity:0.75;stroke:#4c8adc;stroke-width:1;stroke-linejoin:round;stroke-dasharray:none;stroke-opacity:0.285106"
         d="m -41.004986,245.68141 -0.0044,-18.44097 18.570811,-0.004 18.5708249,-0.004 0.00723,18.43816 0.00728,18.43818 -18.5736679,0.007 -18.573651,0.007 z"
         id="path7603-9" /><path
         style="fill:#000000;fill-opacity:0.75;stroke:#4c8adc;stroke-width:1;stroke-linejoin:round;stroke-dasharray:none;stroke-opacity:0.285106"
         d="m 64.279118,112.17273 c 0.1253,-0.005 8.17453,-0.10414 17.88741,-0.22068 l 17.65971,-0.21192 0.176252,17.58226 c 0.15813,15.78341 0.0948,17.53633 -0.619302,17.13347 -0.88659,-0.50012 -35.463955,-34.26878 -35.10404,-34.28294 z"
         id="path7605-70" /><path
         style="fill:#000000;fill-opacity:0.75;stroke:#4c8adc;stroke-width:1;stroke-linejoin:round;stroke-dasharray:none;stroke-opacity:0.285106"
         d="m 82.070504,131.66492 18.628816,18.11311 -17.964327,18.47585 -17.964318,18.47585 -0.485227,-27.08653 c -0.26688,-14.89761 -0.565875,-31.36266 -0.66449,-36.58899 l -0.179362,-9.50241 z"
         id="path7607-39" /><path
         style="fill:#000000;fill-opacity:0.75;stroke:#4c8adc;stroke-width:1;stroke-linejoin:round;stroke-dasharray:none;stroke-opacity:0.285106"
         d="m 101.37519,227.79518 c 0.31993,20.86469 0.46514,37.99515 0.32267,38.06761 -0.22788,0.11596 -70.701097,0.0654 -73.447572,-0.0527 l -1.074352,-0.0462 36.808411,-37.95256 36.808443,-37.95263 z"
         id="path7609-8" /><path
         style="fill:#000000;fill-opacity:0.75;stroke:#4c8adc;stroke-width:1;stroke-linejoin:round;stroke-dasharray:none;stroke-opacity:0.285106"
         d="m 38.6868,199.44551 25.689312,26.90292 -26.33436,-0.0759 c -14.483831,-0.0417 -38.15374341,-0.19651 -52.599822,-0.34398 l -26.26555,-0.26837 26.910618,-26.55895 26.910587,-26.55897 z"
         id="path7611-6" /></g><g
       inkscape:label="Layer 1"
       id="layer1-1"
       transform="matrix(0.11632016,0,0,0.11632016,96.510987,-2.1396577)"><path
         style="fill:#000000;fill-opacity:0.75;stroke:#4c8adc;stroke-width:1;stroke-linejoin:round;stroke-dasharray:none;stroke-opacity:0.285106"
         d="m 196.50212,143.8098 18.17609,-0.2396 18.68255,18.19057 18.68253,18.19055 -18.30947,0.24424 -18.30947,0.24433 -18.54915,-18.19526 -18.54914,-18.19521 z"
         id="path7599-4" /><path
         style="fill:#000000;fill-opacity:0.75;stroke:#4c8adc;stroke-width:1;stroke-linejoin:round;stroke-dasharray:none;stroke-opacity:0.285106"
         d="m 44.866738,201.40684 6.862428,23.97911 -6.266848,-3.21317 c -3.446756,-1.76725 -10.447996,-5.50918 -15.558299,-8.31544 l -9.291475,-5.10225 8.695743,-15.66361 8.695748,-15.6636 z"
         id="path7601-7" /><path
         style="fill:#000000;fill-opacity:0.75;stroke:#4c8adc;stroke-width:1;stroke-linejoin:round;stroke-dasharray:none;stroke-opacity:0.285106"
         d="M 40.251477,135.02479 27.10494,122.09274 40.128052,108.85366 53.151156,95.614544 66.297654,108.54262 79.444214,121.47067 66.421083,134.71377 53.398,147.95685 Z"
         id="path7603-1" /><path
         style="fill:#000000;fill-opacity:0.75;stroke:#4c8adc;stroke-width:1;stroke-linejoin:round;stroke-dasharray:none;stroke-opacity:0.285106"
         d="m 131.01691,176.51599 c 0.0767,0.0991 4.84743,6.58304 10.60124,14.40909 l 10.46146,14.22914 -14.18698,10.38734 c -12.73554,9.32453 -14.1971,10.29438 -14.28575,9.47929 -0.11009,-1.01194 7.18868,-48.78899 7.40991,-48.50472 z"
         id="path7605-3" /><path
         style="fill:#000000;fill-opacity:0.75;stroke:#4c8adc;stroke-width:1;stroke-linejoin:round;stroke-dasharray:none;stroke-opacity:0.285106"
         d="M 0.37201329,120.7316 0.53287143,94.749084 26.302007,94.908571 52.071139,95.068059 32.870719,114.17982 C 22.310472,124.6913 10.641971,136.31168 6.9407159,140.00288 l -6.72956039,6.71128 z"
         id="path7607-8" /><path
         style="fill:#000000;fill-opacity:0.75;stroke:#4c8adc;stroke-width:1;stroke-linejoin:round;stroke-dasharray:none;stroke-opacity:0.285106"
         d="m 139.37903,143.41243 c 20.86646,0.17141 37.99558,0.42957 38.06467,0.57357 0.11051,0.23058 -1.59926,70.68303 -1.78202,73.42597 l -0.0715,1.07296 -37.07539,-37.69179 -37.07546,-37.69182 z"
         id="path7609-4" /><path
         style="fill:#000000;fill-opacity:0.75;stroke:#4c8adc;stroke-width:1;stroke-linejoin:round;stroke-dasharray:none;stroke-opacity:0.285106"
         d="m 106.17667,149.27324 25.96993,26.63212 -26.3337,0.20019 c -14.483473,0.11011 -38.153703,0.20349 -52.600533,0.20747 l -26.266927,0.007 26.630717,-26.8396 26.63067,-26.83963 z"
         id="path7611-8" /></g><g
       inkscape:label="Layer 1"
       id="layer1-3"
       transform="matrix(0.14640731,0,0,0.14640731,133.77419,-16.072897)"><path
         style="fill:#000000;fill-opacity:0.75;stroke:#4c8adc;stroke-width:1;stroke-linejoin:round;stroke-dasharray:none;stroke-opacity:0.285106"
         d="m 110.50339,228.29824 -0.17373,18.17685 -18.610602,18.26413 -18.610554,18.26411 0.172124,-18.3103 0.172014,-18.31029 18.612233,-18.13065 18.612205,-18.13066 z"
         id="path7599-7" /><path
         style="fill:#000000;fill-opacity:0.75;stroke:#4c8adc;stroke-width:1;stroke-linejoin:round;stroke-dasharray:none;stroke-opacity:0.285106"
         d="m 95.698169,287.29228 0.109403,-24.9415 5.119748,4.83591 c 2.81585,2.65975 8.49305,8.20853 12.61597,12.33064 l 7.49624,7.49472 -12.72522,12.61084 -12.725234,12.61083 z"
         id="path7601-8" /><path
         style="fill:#000000;fill-opacity:0.75;stroke:#4c8adc;stroke-width:1;stroke-linejoin:round;stroke-dasharray:none;stroke-opacity:0.285106"
         d="m 95.32856,171.45335 -2.152866,-18.31487 18.443826,-2.16799 18.44384,-2.16803 2.15532,18.31176 2.15537,18.31176 -18.44634,2.17111 -18.446313,2.17114 z"
         id="path7603-8" /><path
         style="fill:#000000;fill-opacity:0.75;stroke:#4c8adc;stroke-width:1;stroke-linejoin:round;stroke-dasharray:none;stroke-opacity:0.285106"
         d="m 81.770071,276.43428 c 0.006,0.12526 0.17162,8.1734 0.36834,17.88498 l 0.3577,17.65736 -17.58021,0.3214 c -15.781559,0.28842 -17.534949,0.23957 -17.137999,-0.47784 0.49279,-0.89069 33.974849,-35.74565 33.991979,-35.38586 z"
         id="path7605-38" /><path
         style="fill:#000000;fill-opacity:0.75;stroke:#4c8adc;stroke-width:1;stroke-linejoin:round;stroke-dasharray:none;stroke-opacity:0.285106"
         d="m 109.90803,208.61776 -18.566912,18.17655 -18.02731,-18.41439 -18.02731,-18.41439 27.09026,0.18272 c 14.89966,0.10049 31.367082,0.20755 36.594252,0.23783 l 9.50395,0.055 z"
         id="path7607-1" /><path
         style="fill:#000000;fill-opacity:0.75;stroke:#4c8adc;stroke-width:1;stroke-linejoin:round;stroke-dasharray:none;stroke-opacity:0.285106"
         d="m 70.071587,154.76583 c -8.586642,19.01861 -15.742796,34.58341 -15.902563,34.58838 -0.255564,0.008 -64.0121601,-30.0182 -66.447456,-31.29351 l -0.952616,-0.49889 49.457162,-18.68809 49.457225,-18.68814 z"
         id="path7609-5" /><path
         style="fill:#000000;fill-opacity:0.75;stroke:#4c8adc;stroke-width:1;stroke-linejoin:round;stroke-dasharray:none;stroke-opacity:0.285106"
         d="M 37.216278,224.06362 20.73158,257.40972 11.788947,232.64011 C 6.8705133,219.01689 -1.0859933,196.72378 -5.8921516,183.09984 L -14.630379,158.329 19.53546,174.52327 53.701316,190.7175 Z"
         id="path7611-3" /></g><g
       inkscape:label="Layer 1"
       id="layer1-36"
       transform="matrix(0.20149346,0,0,0.20149346,166.9667,-10.07632)"><path
         style="fill:#000000;fill-opacity:0.75;stroke:#4c8adc;stroke-width:1;stroke-linejoin:round;stroke-dasharray:none;stroke-opacity:0.285106"
         d="m 19.206634,103.64324 -18.1773337,0.11054 -18.3287143,18.547 -18.328679,18.54697 18.310781,-0.10846 18.31079522,-0.10836 18.19522278,-18.54911 18.195243,-18.54908 z"
         id="path7599-59" /><path
         style="fill:#000000;fill-opacity:0.75;stroke:#4c8adc;stroke-width:1;stroke-linejoin:round;stroke-dasharray:none;stroke-opacity:0.285106"
         d="m 70.667573,142.14879 24.940233,0.2738 -4.869557,5.08776 c -2.678248,2.79826 -8.264325,8.43876 -12.413521,12.53442 l -7.544002,7.44665 -12.526711,-12.80805 -12.526689,-12.80808 z"
         id="path7601-5" /><path
         style="fill:#000000;fill-opacity:0.75;stroke:#4c8adc;stroke-width:1;stroke-linejoin:round;stroke-dasharray:none;stroke-opacity:0.285106"
         d="m 1.77114,83.88773 0.067448,-18.440841 18.57069,0.06835 18.570698,0.06836 -0.06461,18.438049 -0.06451,18.438072 -18.573557,-0.0654 -18.5735292,-0.0654 z"
         id="path7603-4" /><path
         style="fill:#000000;fill-opacity:0.75;stroke:#4c8adc;stroke-width:1;stroke-linejoin:round;stroke-dasharray:none;stroke-opacity:0.285106"
         d="m 97.093087,193.42826 c -0.0919,-0.0853 -5.838173,-5.72272 -12.769921,-12.52746 l -12.60314,-12.37218 12.34242,-12.52324 c 11.079729,-11.24191 12.367297,-12.43309 12.585203,-11.64268 0.270569,0.9813 0.709389,49.31062 0.445552,49.06541 z"
         id="path7605-9" /><path
         style="fill:#000000;fill-opacity:0.75;stroke:#4c8adc;stroke-width:1;stroke-linejoin:round;stroke-dasharray:none;stroke-opacity:0.285106"
         d="m -9.1739954,168.25954 0.0028,-25.98303 25.7696424,0.003 25.769633,0.003 -19.083806,19.22821 C 12.788181,172.08626 1.1905546,183.77738 -2.4881724,187.49103 l -6.688548,6.75213 z"
         id="path7607-17" /><path
         style="fill:#000000;fill-opacity:0.75;stroke:#4c8adc;stroke-width:1;stroke-linejoin:round;stroke-dasharray:none;stroke-opacity:0.285106"
         d="m 17.377341,169.30759 c 14.688171,-14.82213 26.8297,-26.90753 26.981135,-26.85639 0.2422,0.082 49.49748,50.48415 51.33405,52.52966 l 0.718419,0.80015 -52.86964,0.23843 -52.8697185,0.23844 z"
         id="path7609-55" /><path
         style="fill:#000000;fill-opacity:0.75;stroke:#4c8adc;stroke-width:1;stroke-linejoin:round;stroke-dasharray:none;stroke-opacity:0.285106"
         d="m 81.797815,114.14843 25.755655,26.83941 -26.33447,-0.0109 c -14.483882,-0.006 -38.154109,-0.10231 -52.600512,-0.21411 L 2.3523602,140.55931 29.19732,113.934 56.042241,87.308669 Z"
         id="path7611-4" /></g><g
       inkscape:label="Layer 1"
       id="layer1-18"
       transform="matrix(0.14965761,0,0,0.15083484,196.37137,-1.7325927)"><path
         style="fill:#000000;fill-opacity:0.75;stroke:#4c8adc;stroke-width:1;stroke-linejoin:round;stroke-dasharray:none;stroke-opacity:0.285106"
         d="m 108.13359,143.19393 -18.177627,-0.0397 -18.48135,18.39491 -18.481315,18.39488 18.311052,0.0428 18.311066,0.043 18.347874,-18.39813 18.34791,-18.39809 z"
         id="path7599-8" /><path
         style="fill:#000000;fill-opacity:0.75;stroke:#4c8adc;stroke-width:1;stroke-linejoin:round;stroke-dasharray:none;stroke-opacity:0.285106"
         d="m 103.37796,84.443001 18.66835,16.540329 -7.01197,0.65581 c -3.85658,0.36069 -11.77204,0.96496 -17.589876,1.34279 l -10.577946,0.68694 -1.078579,-17.882992 -1.07854,-17.882997 z"
         id="path7601-3" /><path
         style="fill:#000000;fill-opacity:0.75;stroke:#4c8adc;stroke-width:1;stroke-linejoin:round;stroke-dasharray:none;stroke-opacity:0.285106"
         d="m 88.508579,123.35056 -1.48674,-18.38094 18.510401,-1.49678 18.5104,-1.49678 1.48934,18.37791 1.48943,18.37793 -18.513,1.49997 -18.51298,1.49996 z"
         id="path7603-5" /><path
         style="fill:#000000;fill-opacity:0.75;stroke:#4c8adc;stroke-width:1;stroke-linejoin:round;stroke-dasharray:none;stroke-opacity:0.285106"
         d="m 163.60751,134.96632 c -0.12459,0.0141 -8.14536,0.69771 -17.82411,1.51955 l -17.59765,1.49427 -1.45308,-17.52299 c -1.30431,-15.73022 -1.36849,-17.48311 -0.62701,-17.13319 0.92057,0.43439 37.85974,31.60191 37.50181,31.64217 z"
         id="path7605-2" /><path
         style="fill:#000000;fill-opacity:0.75;stroke:#4c8adc;stroke-width:1;stroke-linejoin:round;stroke-dasharray:none;stroke-opacity:0.285106"
         d="m 70.091442,161.33884 -18.371763,18.37379 -18.222736,-18.22104 -18.22273,-18.22104 27.090669,-0.10652 c 14.899886,-0.0586 31.367505,-0.1274 36.594701,-0.15294 l 9.503987,-0.0465 z"
         id="path7607-2" /><path
         style="fill:#000000;fill-opacity:0.75;stroke:#4c8adc;stroke-width:1;stroke-linejoin:round;stroke-dasharray:none;stroke-opacity:0.285106"
         d="M -2.8109085,107.49522 C 13.257209,94.181561 26.523105,83.342295 26.668809,83.40801 c 0.233012,0.105314 44.319706,55.08551 45.947291,57.30091 l 0.636672,0.86662 -52.639227,-4.93637 -52.639301,-4.93635 z"
         id="path7609-6" /><path
         style="fill:#000000;fill-opacity:0.75;stroke:#4c8adc;stroke-width:1;stroke-linejoin:round;stroke-dasharray:none;stroke-opacity:0.285106"
         d="M 57.041965,59.610052 86.392827,36.757587 83.667974,62.950708 C 82.169312,77.356857 79.634069,100.89111 78.034027,115.24908 L 75.12463,141.35436 51.40771,111.90836 27.690772,82.462391 Z"
         id="path7611-67" /></g><g
       inkscape:label="Layer 1"
       id="layer1-91"
       transform="matrix(0.15230548,0,0,0.15230548,240.5311,-3.0262563)"><path
         style="fill:#000000;fill-opacity:0.75;stroke:#4c8adc;stroke-width:1;stroke-linejoin:round;stroke-dasharray:none;stroke-opacity:0.285106"
         d="m -36.561455,125.32703 0.1837,18.17675 -18.247927,18.62649 -18.247897,18.62645 -0.187859,-18.31013 -0.188049,-18.31016 18.252197,-18.49304 18.252166,-18.49308 z"
         id="path7599-55" /><path
         style="fill:#000000;fill-opacity:0.75;stroke:#4c8adc;stroke-width:1;stroke-linejoin:round;stroke-dasharray:none;stroke-opacity:0.285106"
         d="m -15.50902,161.7952 -17.459342,-17.81182 7.040726,-0.16123 c 3.872395,-0.0887 11.810751,-0.13498 17.6407579,-0.10287 l 10.60006,0.0584 -0.1813,17.91457 -0.18133,17.91458 z"
         id="path7601-58" /><path
         style="fill:#000000;fill-opacity:0.75;stroke:#4c8adc;stroke-width:1;stroke-linejoin:round;stroke-dasharray:none;stroke-opacity:0.285106"
         d="m -35.000709,123.77065 -0.0411,-18.44092 18.570773,-0.0409 18.5707719,-0.041 0.043926,18.43811 0.044016,18.43813 -18.5736139,0.0439 -18.573594,0.0439 z"
         id="path7603-29" /><path
         style="fill:#000000;fill-opacity:0.75;stroke:#4c8adc;stroke-width:1;stroke-linejoin:round;stroke-dasharray:none;stroke-opacity:0.285106"
         d="m 1.5676414,68.215726 c 0.005,0.125284 0.10474,8.174516 0.22201,17.887391 l 0.21323,17.659693 -17.5822374,0.17757 c -15.783399,0.15929 -17.536324,0.0961 -17.133516,-0.61804 0.500052,-0.88662 34.2661434,-35.466496 34.2803234,-35.106588 z"
         id="path7605-8" /><path
         style="fill:#000000;fill-opacity:0.75;stroke:#4c8adc;stroke-width:1;stroke-linejoin:round;stroke-dasharray:none;stroke-opacity:0.285106"
         d="m -54.858394,123.44115 -18.371763,18.37379 -18.222736,-18.22104 -18.222727,-18.22104 27.090666,-0.10652 c 14.899886,-0.0586 31.367505,-0.1274 36.594701,-0.15294 l 9.503987,-0.0465 z"
         id="path7607-20" /><path
         style="fill:#000000;fill-opacity:0.75;stroke:#4c8adc;stroke-width:1;stroke-linejoin:round;stroke-dasharray:none;stroke-opacity:0.285106"
         d="M 4.0143796,162.66401 C 3.8007179,141.79797 3.7427709,124.66698 3.8856035,124.59525 c 0.2286039,-0.11458 70.7005115,0.29472 73.4463485,0.42681 l 1.074103,0.0516 -37.001242,37.76457 -37.001276,37.76465 z"
         id="path7609-74" /><path
         style="fill:#000000;fill-opacity:0.75;stroke:#4c8adc;stroke-width:1;stroke-linejoin:round;stroke-dasharray:none;stroke-opacity:0.285106"
         d="M 4.1019332,86.172134 4.2421695,48.974169 23.166672,67.287216 c 10.408427,10.072129 27.358196,26.594648 37.666135,36.716804 l 18.741482,18.40401 -37.80646,0.48112 -37.8064355,0.48113 z"
         id="path7611-85" /></g><g
       inkscape:label="Layer 1"
       id="layer1-2"
       transform="matrix(0.14036394,0,0,0.13144627,267.13721,-0.51655124)"><path
         style="fill:#000000;fill-opacity:0.75;stroke:#4c8adc;stroke-width:1;stroke-linejoin:round;stroke-dasharray:none;stroke-opacity:0.285106"
         d="M 72.299258,49.860891 56.389606,58.65356 31.332133,51.438586 6.2747057,44.223616 22.299767,35.363958 38.324762,26.504122 63.26682,33.78622 88.2089,41.068271 Z"
         id="path7599-2" /><path
         style="fill:#000000;fill-opacity:0.75;stroke:#4c8adc;stroke-width:1;stroke-linejoin:round;stroke-dasharray:none;stroke-opacity:0.285106"
         d="m -47.755822,212.15042 15.484468,-19.55303 1.04192,6.96507 c 0.573079,3.83078 1.613396,11.70081 2.311837,17.48892 l 1.269882,10.52388 -17.796173,2.06421 -17.796185,2.06417 z"
         id="path7601-71" /><path
         style="fill:#000000;fill-opacity:0.75;stroke:#4c8adc;stroke-width:1;stroke-linejoin:round;stroke-dasharray:none;stroke-opacity:0.285106"
         d="m -34.135456,41.666667 -4.208794,-17.954255 18.080797,-4.237954 18.0807678,-4.238051 4.210916,17.950878 4.211007,17.950878 -18.0828808,4.241517 -18.082866,4.241515 z"
         id="path7603-52" /><path
         style="fill:#000000;fill-opacity:0.75;stroke:#4c8adc;stroke-width:1;stroke-linejoin:round;stroke-dasharray:none;stroke-opacity:0.285106"
         d="m 51.725115,189.62007 c 0.12297,-0.0245 8.05777,-1.38062 17.63304,-3.01396 l 17.40951,-2.96972 2.92239,17.33858 c 2.623296,15.56468 2.834746,17.30595 2.066446,17.01966 -0.953856,-0.35538 -40.384606,-28.30414 -40.031326,-28.37438 z"
         id="path7605-1" /><path
         style="fill:#000000;fill-opacity:0.75;stroke:#4c8adc;stroke-width:1;stroke-linejoin:round;stroke-dasharray:none;stroke-opacity:0.285106"
         d="m -9.1628791,156.47219 7.747212,24.80118 -24.5975609,7.68337 -24.597557,7.68338 12.480011,-24.04507 c 6.863999,-13.2248 14.446645,-27.84296 16.850271,-32.48482 l 4.37017,-8.43977 z"
         id="path7607-10" /><path
         style="fill:#000000;fill-opacity:0.75;stroke:#4c8adc;stroke-width:1;stroke-linejoin:round;stroke-dasharray:none;stroke-opacity:0.285106"
         d="M 43.36354,191.59464 C 23.545789,198.1287 7.2398075,203.38124 7.128123,203.26689 6.9495896,203.08383 -14.04065,135.80927 -14.747835,133.15278 l -0.276703,-1.03914 47.210319,23.80001 47.21041,23.80001 z"
         id="path7609-1" /><path
         style="fill:#000000;fill-opacity:0.75;stroke:#4c8adc;stroke-width:1;stroke-linejoin:round;stroke-dasharray:none;stroke-opacity:0.285106"
         d="m -17.013799,87.916632 16.9098571,-33.13254 8.625073,24.881974 C 13.264897,93.351086 20.935631,115.74411 25.567153,129.42844 L 33.987849,154.309 0.0319132,137.67908 -33.924006,121.04918 Z"
         id="path7611-87" /></g></g></svg>
